<svg xmlns="http://www.w3.org/2000/svg" data-name="Layer 1" viewBox="0 0 128 128"><path d="M36.56 47a35.48 35.48 0 0 1 6.18-7.51 46.06 46.06 0 0 1 7.84-5.05l8.21 8 30.89-22.5A51 51 0 0 0 25.16 31zm71.51 42.66a51 51 0 0 0-11-64.47l-16 11.26a53.1 53.1 0 0 1 6.43 5.06c2.77 2.64 6.06 9.09 6.06 9.09l-8 8.18zm-16.45-8.48a53.4 53.4 0 0 1-5.06 6.42c-2.64 2.77-9.09 6.07-9.09 6.07l-8.09-8-31.07 22.38a51 51 0 0 0 64.5-11zM31 102.85l16-11.34a35.48 35.48 0 0 1-7.51-6.18 46.79 46.79 0 0 1-5-7.84l8-8.08L20 38.3a51 51 0 0 0 11 64.55z"/></svg>