<svg xmlns="http://www.w3.org/2000/svg" data-name="Layer 1" viewBox="0 0 128 128"><path d="M64 116.24A52.24 52.24 0 1 1 116.24 64 52.31 52.31 0 0 1 64 116.24Zm0-99.52A47.28 47.28 0 1 0 111.28 64 47.33 47.33 0 0 0 64 16.72Z"/><path d="M64 107.37A43.37 43.37 0 1 1 107.37 64 43.42 43.42 0 0 1 64 107.37Zm0-81.78A38.41 38.41 0 1 0 102.41 64 38.45 38.45 0 0 0 64 25.59Z"/><path d="M71.81 74.29a36.92 36.92 0 0 0-15.27-.16 37.92 37.92 0 0 0-5.49 1.46l10.82-19-2.86-5L40.6 83.51h6a37.28 37.28 0 0 1 10.87-4.24 36.61 36.61 0 0 1 18 1.35s-3.64-6.32-3.66-6.33Z"/><path d="m92.71 76.19-25-43.34h-5.8l27.86 48.34ZM59 34.73 35.17 76l2.92 5.07L59 44.67l11.57 20a26.47 26.47 0 0 0-8.62-.1S58.41 70 58.54 70a36.49 36.49 0 0 1 15.73 1.1l7 12.41h5.82Z"/></svg>