<svg xmlns="http://www.w3.org/2000/svg" data-name="Layer 1" viewBox="0 0 128 128"><path d="m99.11 84.58-29 15.12V85.16a22.47 22.47 0 1 0-12.16 0V99.7l-29-15.12a1.09 1.09 0 0 1-.59-1v-8.39H16.13v9.75a11 11 0 0 0 5.95 9.8l36.81 19.19a11.11 11.11 0 0 0 10.22 0l36.81-19.19a11 11 0 0 0 6-9.8v-9.75H99.7v8.41a1.09 1.09 0 0 1-.59.98Zm-45.42-21A10.31 10.31 0 1 1 64 73.85a10.32 10.32 0 0 1-10.31-10.31Z"/><path d="M58.89 14.07 22.08 33.26a11 11 0 0 0-5.95 9.8v9.75H28.3V44.4a1.09 1.09 0 0 1 .59-1l34.6-18a1.08 1.08 0 0 1 1 0l34.6 18a1.09 1.09 0 0 1 .59 1v8.41h12.17v-9.75a11 11 0 0 0-6-9.8L69.11 14.07a11.11 11.11 0 0 0-10.22 0Z"/></svg>