<svg xmlns="http://www.w3.org/2000/svg" data-name="Layer 1" viewBox="0 0 128 128"><path d="M107.88 118.72H20.44V52a43.72 43.72 0 0 1 87.44 0Zm-85.44-2h83.44V52a41.72 41.72 0 0 0-83.44 0Z"/><path d="M64.16 15.53A36.15 36.15 0 0 0 28 51.68v59.61h72.3V51.68a36.14 36.14 0 0 0-36.14-36.15ZM44 107.29v-7.37a32.77 32.77 0 0 0 12.33 7.37Zm34.3-1.41a39.17 39.17 0 0 1-10.45 1.41A32.85 32.85 0 0 1 35 74.44V53.68a36 36 0 0 1 8.29-23c19.05 2.12 35 12.45 35 32Z"/><path d="M41.47 67a1.25 1.25 0 0 1-1.25-1.25v-6.87A1.25 1.25 0 0 1 42.3 58l5.33 4.74v-2.62a1.25 1.25 0 0 1 2.5 0v5.35a1.25 1.25 0 0 1-.74 1.14 1.26 1.26 0 0 1-1.34-.2l-5.33-4.74v4A1.25 1.25 0 0 1 41.47 67zm26.47-1.63a1.25 1.25 0 0 1-1.25-1.25 2.4 2.4 0 1 0-4.79 0 1.25 1.25 0 0 1-2.5 0 4.9 4.9 0 1 1 9.79 0 1.25 1.25 0 0 1-1.25 1.25zM55.71 80.6a6.55 6.55 0 0 1-6.55-6.54 1.25 1.25 0 0 1 2.5 0 4 4 0 0 0 8.09 0 1.25 1.25 0 0 1 2.5 0 6.55 6.55 0 0 1-6.54 6.54z"/><path d="M64.29 49.93a9.73 9.73 0 0 0-8.69 5.39 7.23 7.23 0 0 0-4.27-3.1 1.25 1.25 0 0 0-.54 2.44c2 .45 3.78 2.89 3.78 5.24v11.22a1.25 1.25 0 0 0 2.5 0V59.65a7.22 7.22 0 1 1 14.44 0 1.25 1.25 0 0 0 2.5 0 9.73 9.73 0 0 0-9.72-9.72Z"/></svg>