<svg xmlns="http://www.w3.org/2000/svg" data-name="Layer 1" viewBox="0 0 128 128"><path d="M53.36,49.65c4,2.13,4.81,4.73,3.5,6.77a21,21,0,0,1-4,4.41c-.61.46-1.62.56-2-.1-.92-1.53-3.6-3.77-5.16-5a1.62,1.62,0,0,0-2.15.11c-3,2.92-11.73,11.45-13.74,12.92-.84.63-2.67,1.62-3.47-.19-1.2-2.72-.49-6.23.74-7.62,1-1.1,8.14-7.21,11.06-9.69a1,1,0,0,0-.25-1.69c-2.78-1.21-8.59-3.69-9.7-3.82-1.48-.16-3.75-.43-4.61,3-2,8-1.5,22.19,1.94,33.12.92,2.93,3,7.3,6.6,5.16,14.46-8.56,48.46-41.49,52.39-45.59S98.75,27.2,101.2,25.8s7.19-1.3,9.18,2.3c7.7,13.93,6.88,58.15,5.43,64.37-.75,3.2-3.76,5.07-7.91,4.15-9-2-26.75-14.94-35.38-20.14a3,3,0,0,1-.62-4.62L75,68.6a1.5,1.5,0,0,1,1.94-.21c4.18,2.86,19.43,13.24,21.4,14,2.27.91,5.16.65,6.06-3.77.84-4.14,1.42-30.05-4-36.87-2.06-2.58-8.11-1.31-16.14,7.54-4.61,5.08-48.64,49.22-58.35,53-4,1.57-7.62.62-9.58-4.66-7-18.79-5.22-57.38-3.63-63.29s6.19-4,10.59-1.56"/></svg>