<svg xmlns="http://www.w3.org/2000/svg" data-name="Layer 1" viewBox="0 0 128 128"><path d="M59.9 41.13 33.76 26.51a1.81 1.81 0 0 1 0-3.16L59.9 8.72a2.42 2.42 0 0 1 2.36 0L88.4 23.35a1.81 1.81 0 0 1 0 3.16L62.26 41.13a2.42 2.42 0 0 1-2.36 0zM26.94 61.56V32.74a1.81 1.81 0 0 1 2.7-1.58l26.87 15.07a2.43 2.43 0 0 1 1.23 2.11v28.82a1.8 1.8 0 0 1-2.69 1.58L28.17 63.67a2.42 2.42 0 0 1-1.23-2.11zm0 40.6V73.34a1.81 1.81 0 0 1 2.7-1.58l26.87 15.08a2.4 2.4 0 0 1 1.23 2.1v28.83a1.81 1.81 0 0 1-2.69 1.58l-26.88-15.08a2.42 2.42 0 0 1-1.23-2.11zm68.28-40.6V32.74a1.8 1.8 0 0 0-2.69-1.58L65.65 46.23a2.43 2.43 0 0 0-1.23 2.11v28.82a1.81 1.81 0 0 0 2.7 1.58L94 63.67a2.42 2.42 0 0 0 1.22-2.11zm9.84 35.21V67.94a1.81 1.81 0 0 0-2.69-1.58L65.66 86.84a2.39 2.39 0 0 0-1.24 2.1v28.84a1.81 1.81 0 0 0 2.69 1.58l36.71-20.48a2.41 2.41 0 0 0 1.24-2.11z"/></svg>