<svg xmlns="http://www.w3.org/2000/svg" data-name="Layer 1" viewBox="0 0 128 128"><path d="M104.55,58.29c-4.87-6.53-14.79-6.77-14.79-6.77s7.48-8,1.79-19.24c-3.65-7.2-12.31-11.6-25-8.11l-5-16.29L51.28,11l5,16.25-8.52,2.61-5-16.26L32.47,16.77l5,16.26L20.89,38.09,24,48.34l10.06-3.08L49.26,94.9,39.2,98l3.33,10.92,16.55-5,5,16.28L74.35,117l-5-16.28,8.52-2.6,5,16.28,10.29-3.14-5-16.29,2.38-.73C110.52,87.78,113,69.55,104.55,58.29ZM51.12,40.06s4.2-1.31,10.17-3.11c5.7-1.71,12.11.3,14,5.88S74,54.67,67.81,56.65c-5.67,1.82-10.62,3.25-10.62,3.25ZM79.89,85.53c-5.84,1.92-13.6,4.16-13.6,4.16L60,69.09s7-2,13.08-4c7.3-2.37,13.74-.61,15.8,5.82S87.8,82.94,79.89,85.53Z"/></svg>