<svg xmlns="http://www.w3.org/2000/svg" data-name="Layer 1" viewBox="0 0 128 128"><path d="M64,115.24A51.24,51.24,0,1,1,115.24,64,51.3,51.3,0,0,1,64,115.24ZM64,18a46,46,0,1,0,46,46A46,46,0,0,0,64,18Z" opacity=".64"/><path d="M64,115.24A51.24,51.24,0,1,1,115.24,64,51.3,51.3,0,0,1,64,115.24ZM64,18a46,46,0,1,0,46,46A46,46,0,0,0,64,18Z"/><path d="M51.51,92.79a25.63,25.63,0,0,1-9.07-19.58,23.24,23.24,0,0,1,6.74-16.85A24.67,24.67,0,0,1,66.7,49a21.3,21.3,0,0,1,6.24.82l2.48.87,2-4.87-2.78-1a27.12,27.12,0,0,0-8-1.12,30,30,0,0,0-21.28,8.94,28.44,28.44,0,0,0-8.24,20.64c.11,5.47,1.68,15.8,11,23.52,6.15,5.12,14.55,8.21,25.09,9.27a42.93,42.93,0,0,0,12.52-4.9C71.34,102.75,59.32,99.34,51.51,92.79Z"/><path d="M33.4,72.89A33.2,33.2,0,0,1,63.18,39.77c.94-.1,1.91-.16,2.87-.17L66,34.33c-1.11,0-2.23.09-3.32.21a38.45,38.45,0,0,0-34.5,38.35,39.07,39.07,0,0,0,8.92,24.73,42.89,42.89,0,0,0,25.07,9.45C45.77,103.64,33.4,89.51,33.4,72.89Z"/><path d="M58.11,86.76a17.69,17.69,0,0,1-6.5-13.53,14.87,14.87,0,0,1,4.33-10.7,15.39,15.39,0,0,1,22.56.66c.2.23.68.82.87,1.06l1,1.25,4.79-2.41L83.53,61c-.23-.29-.82-1-1.06-1.28a20.64,20.64,0,0,0-30.27-.9A20.1,20.1,0,0,0,46.34,73.3a23,23,0,0,0,8.4,17.51c6.51,5.42,16.17,8.13,28.86,8.13,1.89,0,3.86-.07,5.89-.19A43.11,43.11,0,0,0,96,92.88C74.12,95.46,63.35,91.13,58.11,86.76Z"/></svg>