<svg xmlns="http://www.w3.org/2000/svg" data-name="Layer 1" viewBox="0 0 128 128"><path d="M88.78,49.64c4.31-11.25,5-20.42,2-25.94a11.35,11.35,0,0,0-8.29-5.8,11,11,0,0,0-9.68,2.6C66.65,26,65.65,37.57,65.43,44.68c-1.08,0-2,0-3,0C62,37.57,61.19,26,55,20.51a11,11,0,0,0-9.7-2.61A11.41,11.41,0,0,0,37,23.73C34,29.29,34.7,38.5,39,49.78c-12.22,5.76-19.19,15.8-19.19,27.77,0,19.91,17.33,32.77,44.15,32.77s44.15-12.86,44.15-32.77C108.15,65.47,101.12,55.38,88.78,49.64ZM42.16,52.48l1.7-.72-.7-1.71c-4.43-10.84-5.48-19.78-2.9-24.54A7.72,7.72,0,0,1,46,21.57a9.14,9.14,0,0,1,1.69-.17,7.27,7.27,0,0,1,4.82,1.89c7,5.88,6.34,25.33,6.34,25.33l1.68-.12a66.49,66.49,0,0,1,6.77,0l1.64.1s-.56-19.41,6.38-25.27a7.35,7.35,0,0,1,6.5-1.72,7.65,7.65,0,0,1,5.71,3.92c2.57,4.72,1.53,13.62-2.87,24.43L84,51.63l1.71.72c10.51,4.39,17.82,12,18.46,21.38C105.06,87.52,86.35,98.42,64,98.42S23,87.68,23.85,74C24.41,64.54,31.68,56.91,42.16,52.48Z"/><ellipse cx="79.41" cy="72.61" rx="4.72" ry="7.05"/><ellipse cx="48.53" cy="72.61" rx="4.72" ry="7.05"/></svg>