<svg xmlns="http://www.w3.org/2000/svg" data-name="Layer 1" viewBox="0 0 128 128"><circle cx="45.9" cy="63.84" r="7.82"/><circle cx="82.1" cy="63.84" r="7.82"/><circle cx="54.95" cy="79.51" r="7.82"/><circle cx="73.05" cy="48.17" r="7.82"/><circle cx="73.05" cy="79.51" r="7.82"/><circle cx="54.95" cy="48.17" r="7.82"/><circle cx="103.98" cy="64" r="4.1"/><circle cx="24.02" cy="64" r="4.1"/><circle cx="9.48" cy="64" r="2.6"/><circle cx="118.52" cy="64" r="2.6"/><circle cx="83.99" cy="29.37" r="4.1"/><circle cx="44.01" cy="98.63" r="4.1"/><circle cx="36.74" cy="111.21" r="2.6"/><circle cx="91.26" cy="16.79" r="2.6"/><circle cx="44.01" cy="29.37" r="4.1"/><circle cx="83.99" cy="98.63" r="4.1"/><circle cx="91.26" cy="111.21" r="2.6"/><circle cx="36.74" cy="16.79" r="2.6"/><circle cx="64" cy="32.71" r="4.72"/><circle cx="64" cy="14.05" r="3.23"/><circle cx="64" cy="95.29" r="4.72"/><circle cx="64" cy="113.95" r="3.23"/><circle cx="36.9" cy="48.36" r="4.72"/><circle cx="20.74" cy="39.02" r="3.23"/><circle cx="91.1" cy="79.64" r="4.72"/><circle cx="107.26" cy="88.98" r="3.23"/><circle cx="36.9" cy="79.64" r="4.72"/><circle cx="20.74" cy="88.98" r="3.23"/><circle cx="91.1" cy="48.36" r="4.72"/><circle cx="107.26" cy="39.02" r="3.23"/></svg>