<svg xmlns="http://www.w3.org/2000/svg" data-name="Layer 1" viewBox="0 0 128 128"><path d="M109.66,19.72a6.77,6.77,0,0,0-13.08-2.48H31.42a6.78,6.78,0,1,0-6.75,9.24L39.49,60.41a6.77,6.77,0,0,0,4.87,11.14l15.36,35.16a6.78,6.78,0,1,0,8.56,0L83.64,71.55A6.77,6.77,0,0,0,88.5,60.41l14.83-33.93A6.78,6.78,0,0,0,109.66,19.72ZM30.34,27.39l29.6,22.55L48.12,59a6.8,6.8,0,0,0-4.37-.88Zm1.13-5.32H96.52L63.93,46.91,31.44,22.16ZM51.13,62.73,63.93,53l12.91,9.84A6.78,6.78,0,0,0,79,70l-15,34.4L49,70A6.79,6.79,0,0,0,51.13,62.73Zm33.12-4.66A6.81,6.81,0,0,0,79.8,59L67.91,50,97.74,27.22Z"/></svg>