<svg xmlns="http://www.w3.org/2000/svg" data-name="Layer 1" viewBox="0 0 128 128"><path d="M23.15,68.62V84.34a8.86,8.86,0,0,0,4.22,7.55l34.72,21.34a4,4,0,0,0,6.07-3.4V92.52A6.33,6.33,0,0,0,65,87.05L28.31,65.66A3.43,3.43,0,0,0,23.15,68.62Z"/><path d="M39.93,42.43V64l33,19.85a5.05,5.05,0,0,1,2.45,4.33v19.94l9.58-5.63V66.79a6.28,6.28,0,0,0-3.12-5.43L44.66,39.71A3.15,3.15,0,0,0,39.93,42.43Z"/><path d="M55.94,17V38.14L89.23,58.05a5.06,5.06,0,0,1,2.45,4.33V98.46l8.21-4.8a1.57,1.57,0,0,0,.78-1.35l.18-50.69a6.27,6.27,0,0,0-3.11-5.41L60.37,14.43A3,3,0,0,0,55.94,17Z"/></svg>