<svg xmlns="http://www.w3.org/2000/svg" data-name="Layer 1" viewBox="0 0 128 128"><polygon points="104.29 54.27 104.29 34.13 94.23 34.13 94.23 24.05 74.09 24.05 74.09 13.68 53.95 13.68 53.95 24.05 33.81 24.05 33.81 34.13 23.71 34.13 23.71 94.09 33.81 94.09 33.81 103.95 53.95 103.95 53.95 114.32 74.09 114.32 74.09 103.95 94.23 103.95 94.23 93.87 104.29 93.87 104.29 73.73 84.16 73.73 84.16 83.81 74.09 83.81 74.09 94.18 53.95 94.18 53.95 83.81 43.84 83.81 43.84 44.19 53.95 44.19 53.95 33.82 74.09 33.82 74.09 44.19 84.16 44.19 84.16 54.27 104.29 54.27"/></svg>