<svg xmlns="http://www.w3.org/2000/svg" data-name="Layer 1" viewBox="0 0 128 128"><path d="M64,118.59,16.73,91.29V36.71L64,9.41l47.27,27.3V91.29ZM22.26,88.1,64,112.2l41.74-24.1V39.9L64,15.8,22.26,39.9Z"/><polygon points="86.14 58.63 98.59 68.52 82.36 97.33 75.64 97.33 67.96 89.27 67.96 85.61 77.11 77.67 77.11 65.42 86.14 58.63"/><polygon points="81.87 33.12 46.13 33.12 41.25 52.16 86.75 52.16 81.87 33.12"/><polygon points="75.89 55.45 52.11 55.45 56.14 65.83 55.36 77.43 72.64 77.43 71.86 65.83 75.89 55.45"/><polygon points="41.86 58.63 29.41 68.52 45.64 97.33 52.36 97.33 60.04 89.27 60.04 85.61 50.89 77.67 50.89 65.42 41.86 58.63"/></svg>