<svg xmlns="http://www.w3.org/2000/svg" data-name="Layer 1" viewBox="0 0 128 128"><path d="M49.15 46.26L73.81 75.67l7.59-9.1 23.43 28A51 51 0 1017.26 84.4zM81.42 33.4A12.74 12.74 0 1168.69 46.14 12.74 12.74 0 0181.42 33.4zM49.17 25.74A6.37 6.37 0 1142.8 32.1 6.37 6.37 0 0149.17 25.74zM94.54 104.83a51.79 51.79 0 008.81-8.38H24.65a51.79 51.79 0 008.81 8.38zM36.14 106.7a50.91 50.91 0 0055.72 0z"/><polygon points="102.4 94.57 81.41 69.47 81.53 94.57 102.4 94.57"/><path d="M72.59,77.13l-23.44-28V84.42H17.27a50.32,50.32,0,0,0,5.91,10.15H58.06Z"/></svg>