<svg xmlns="http://www.w3.org/2000/svg" data-name="Layer 1" viewBox="0 0 128 128"><path d="M64,13.65V56.11h0l-6.74-6.73-.62-15.84,7.11-20a50.2,50.2,0,0,0-12.52,1.64l-3.45,9.69L39.15,20.1a50.84,50.84,0,0,0-9.92,7.38l16.26,9,.37,9.5-9.52-.37-9-16.22a50.44,50.44,0,0,0-7.35,10l4.72,8.54-9.54,3.38a50.66,50.66,0,0,0-1.62,12.52l19.85-7,15.86.63L56,64.06,49.3,70.78l-15.86.63-19.84-7a50.38,50.38,0,0,0,1.69,12.54l9.46,3.35L20.1,88.67a50.69,50.69,0,0,0,7.36,9.94l8.88-16.06,9.52-.37-.37,9.5L29.4,100.55a50.51,50.51,0,0,0,10,7.35l8.4-4.64,3.35,9.41a49.76,49.76,0,0,0,12.53,1.66l-7-19.75.62-15.84L64,72h0v42.46A50.41,50.41,0,0,0,64,13.65Zm11.27,87.91v-75a39.16,39.16,0,0,1,0,75Z"/></svg>