<svg xmlns="http://www.w3.org/2000/svg" data-name="Layer 1" viewBox="0 0 128 128"><path d="M87.87 26.64 90 20.39a2 2 0 0 0-2-2.7h-8.9l-2.89 8.68h-4.63l2-6a2 2 0 0 0-1.94-2.7h-8.92l-2.89 8.68H27.7a4.71 4.71 0 0 0-4.1 2.37l-7.86 13.79H75c13.86 0 17 9.7 10.72 22.89C79.49 78.42 68.49 90.22 46.51 91l14.34-36.55a2.92 2.92 0 0 0-2.72-4h-18.6L16.6 106.91s3.07.42 5.56.56c3.13.18 6.47.21 6.47.21l-2.23 6.63h10.27a2.07 2.07 0 0 0 1.95-1.4l1.78-5.36q2.46-.21 4.8-.48l-2.41 7.24h10.27a2.05 2.05 0 0 0 1.94-1.4l2.62-7.91c40.69-8.81 51-34.17 55.16-47.82 6.83-22.39-11.45-29.18-24.91-30.54Z"/></svg>