<svg xmlns="http://www.w3.org/2000/svg" data-name="Layer 1" viewBox="0 0 128 128"><path d="M78 66.82c1.46-2.34 7.37-4 7.37-4-.71 0-7.68-4.15-13.28-.84-2.83 1.67-3.33 5.17-1.15 7 1.55 1.3 5.24.75 7.06-2.16zM50.68 64c-7.12-2.23-13.81 3.35-13.81 3.35s5.34-.88 8.16 1.59 5.74 2.78 7.42 1.1c1.41-1.41.95-5.19-1.77-6.04zm23.74 32.77a27 27 0 0 1-5.28-.85c-1.52-.4-3-.86-4.53-1.37 1.64-1.36 4.2-4.65 4.2-6.67 0-1.7-1.88-3.41-5.23-3.41-3.59 0-6 1.29-6 3.65 0 1.86 3 5.17 4.84 6.49-1.42.39-2.94.81-4.42 1.16a42.19 42.19 0 0 1-5.55.82 1 1 0 0 0-1 1 1 1 0 0 0 1.05 1 14 14 0 0 0 4.62-1 11.81 11.81 0 0 0 6.52 2.41 11.13 11.13 0 0 0 6.23-2.26 20.66 20.66 0 0 0 4.51 1 1 1 0 0 0 1-1 1 1 0 0 0-.96-.97zm-13-8.84a1.05 1.05 0 1 1 1.29-1 1.18 1.18 0 0 1-1.25 1zm2.18 10.13a17.16 17.16 0 0 1-4.87-1c1.65-.55 3.29-1.15 4.91-1.78q2.28 1 4.63 1.9a17.2 17.2 0 0 1-4.63.88zm18.33-26.59c-3.85 0-7.59 2.12-7.59 4.29s3.24 3.42 7.09 3.42 7-1.77 7-4-2.65-3.71-6.5-3.71zm-2.09 2.68a.68.68 0 1 1 .84-.67.77.77 0 0 1-.84.67zm-34.97-2.5c-3.85 0-6.47 1.58-6.47 3.76s3.12 3.94 7 3.94 7.09-1.23 7.09-3.41-3.77-4.29-7.62-4.29zm-2 2.5a.68.68 0 1 1 .84-.67.77.77 0 0 1-.87.67z"/><path d="M111.64 81.59c.23-.06-1-.47-1.65-.65a15.49 15.49 0 0 0-1.86-.49 41.57 41.57 0 0 0-3.06-13.64c.43-.67.8-1.4.8-1.4s1.83-1.29 1.65-2.35a7 7 0 0 0-1.06-2.3 3.85 3.85 0 0 0 1.82-.76c1.18-.77-.11-2.3-.11-2.3s.76-.17.82-1.76a7.76 7.76 0 0 0-1.24-3.59 2.56 2.56 0 0 0 .18-2.7c-.82-1.36-3.12-.59-3.12-.59s1.47-1.18 1.47-2.36a1.2 1.2 0 0 0-1-1.29 4.88 4.88 0 0 0 .24-4.88c-1.1-2.54-3.82-2.42-4.85-2.28-.12-5.27-.62-9.86-1.94-10.43-2.24-.95-5.2-.37-8.13.8a22.68 22.68 0 0 0-2-8.74c-1.77-3.35-8.3-2.12-8.3-2.12s-1.58 1.77-6-.17-12.7 1.06-12.7 1.06 3.7 1.58 2.82 1.41-8.27 1.14-9.88 0C50.9 17.5 50 10.79 50 10.79a19.77 19.77 0 0 0-3.6 8.91 10 10 0 0 0 0 3.89s-2.16-1.29-2.62-2.77a17.55 17.55 0 0 1-.61-5.73.29.29 0 0 0-.56-.1c-.7 2.18-1.84 5.17-2.21 7-.47 2.26-.7 3.59-.7 3.59l-2-4.3a12.82 12.82 0 0 0-1.4 7c-3.6-1.1-6.71-1.4-7.75.31-1.57 2.56-2.11 6.67-2.13 11h-.34A57.55 57.55 0 0 0 17.67 42s7.53 1 8.29 1.12-8.71.23-8.71.23a16.61 16.61 0 0 0 9.46 2.83v.17a10.49 10.49 0 0 0-4 6.18c-.25 1.21-.11 3.77 1.12 4.77S23.3 60 23.3 60s-.63 2.83.16 4.53c-.58 1.55-2 6-2.21 6.64a84.31 84.31 0 0 0-2 8.22c-.1.65-.19 1.31-.24 2-1.66.71-3.22 1.47-2.56 1.54a16.78 16.78 0 0 1 2.55.57v.31a3.76 3.76 0 0 0 .12.67 14.54 14.54 0 0 1-1.54.57s1 .44 1.95.82a34.58 34.58 0 0 0 4.22 6C27.43 96 35.77 102 39.7 104.3c1 .56 10.21 4.68 12.28 5.54 1 .43 4.29 1.44 6.21 2.34s3.81 3.29 4.81 4.63a.89.89 0 0 0 .79.39.85.85 0 0 0 .79-.91c0-.31 1.75-2.73 4.28-4.13.91-.5 6.2-2.29 6.2-2.29a54.28 54.28 0 0 0 12.2-5.72 86.64 86.64 0 0 0 10.88-7.93 54.34 54.34 0 0 0 4.9-4.71 26.52 26.52 0 0 0 3.92-5.85 4 4 0 0 0 2.17-1.37c1.29-1.53.53-1.41.53-1.41s-1.53.12-1.59-.29 3.33-.94 3.57-1ZM90 33.47a7.27 7.27 0 0 0 .38-1.29 8.12 8.12 0 0 1 5.43-.18c1.2.51 1.6 4.91 1.67 9.74-1.21-.17-2.56-.37-3.49-.41a17.18 17.18 0 0 0-3.88.57c-.23-.31-2.66-3.32-3-3.67A16.31 16.31 0 0 0 90 33.47Zm-58.34-1.13c.77-1.26 2.85-1.26 5.38-.64a20.87 20.87 0 0 0 2.26 4.5s.4.8-.66.62-3.3-4.56-3.3-4.56-.55 4.52 2.27 6.82a63.56 63.56 0 0 0-5.75 7.35 9.35 9.35 0 0 0 0-2.9 4.67 4.67 0 0 0-2-2.9c.14-3.27.59-6.31 1.8-8.29Zm70 58a41.51 41.51 0 0 1-4.58 4.71 85.84 85.84 0 0 1-10.54 8 52.47 52.47 0 0 1-11.92 5.69s-5.25 1.84-6.32 2.39a32.33 32.33 0 0 0-2.88 1.87c-.48.34-1.8 1.43-2 1.63l-1.89-1.41a30.85 30.85 0 0 0-2.82-2c-.52-.31-5.28-2-6.3-2.44a117.06 117.06 0 0 1-12.1-5.57 67.39 67.39 0 0 1-10.58-8 58.77 58.77 0 0 1-4.65-4.69 23.7 23.7 0 0 1-2-2.55c-2.4-3.74.29-10 3.46-10 3.69 0 12.23 7.93 17.7 8.08 6.9.18 12.63-6.16 18.46-6.23 5.1-.07 12.27 6.88 18.2 6.88 7.28 0 15.71-8 17.73-8.32 4.84-.75 7 3 7 3.88s-.55 3.89-3.94 8.11ZM106 79.83c-.26-.32-3.87-2.77-7.44-2.22-2.14.33-9.84 7.09-17.67 7.09-5.51 0-12.53-5.75-18.21-5.77-5.1 0-11.37 5.19-18.18 5.16-5.48 0-11.65-6.86-17.95-6.88-4.09 0-5.49 4.07-5.55 4.22 0-.62 1.34-7.21 2-9.92.1-.38.21-.76.32-1.13.77 1.4 1.1 5.8 1.1 5.8s1-3.47 2.52-12.86A48 48 0 0 0 30.07 55l.84-.78c-.08-.45-.15-1-.23-1.49a34 34 0 0 1 1.75-4.14A67.34 67.34 0 0 1 39 39.91a6.75 6.75 0 0 0 4.8.27c2.21-.72 5.92 0 5.92 0s-1.4-2.61-1.27-3.74l1 .51 1-.88c1.76.58 4.23 2.22 6.63 2.48.65.07-.86-2.88-.27-2.6 3.31 1.54 13.15 1.41 13.15 1.41s-4.22-3.11-2.6-3.18c1 0 6.3 1.59 6.3 1.59s3.28-.76 4.06-.27c.58.37.75 2.61.75 2.61s1.2-1.43 1.77-1.46 1.54 1 1.54 1a4.83 4.83 0 0 1 1.57-.83l.46.29c.45.91 0 3.45 0 3.45a5.83 5.83 0 0 0 2.56-1.44 38.66 38.66 0 0 1 2.54 3.1l-1.14.22a10 10 0 0 0 2.76 4.65c1.65 1.51 4 2.76 3.94 3.29s-3.82-.35-3.82.24 2.29 1.47 2.29 1.94-1.82.12-1.82.12a11.68 11.68 0 0 0 3.71 3.11 15.37 15.37 0 0 0 4 1.35l.36.65c-.26 1-5.28.25-5.28.65s3.3 2.53 5.71 2.82 1.77 1.3 1.41 5.65a29.53 29.53 0 0 0 .37 8.09s1.31-4.21 2.15-6.13c1.45 2.81 2.73 8.45 2.45 10.96Z"/></svg>