<svg xmlns="http://www.w3.org/2000/svg" data-name="Layer 1" viewBox="0 0 128 128"><path d="M117.34,56a2.26,2.26,0,0,0-1-4.14,45.4,45.4,0,0,0-8.74-16.27,3.21,3.21,0,0,0-2.47-5.3,3.17,3.17,0,0,0-2,.69,47.31,47.31,0,0,0-23-11.44,45.31,45.31,0,0,0-8.39-3.26,5.82,5.82,0,0,0,.07-.73,5.34,5.34,0,0,0-10.61-.92c-.58,0-1.17,0-1.76,0a45.58,45.58,0,0,0-25.64,7.88,3.25,3.25,0,0,0-5.91,1.89,3.2,3.2,0,0,0,.8,2.12A46.63,46.63,0,0,0,13.31,60.22a5.41,5.41,0,0,0-.61,10,46.18,46.18,0,0,0,11.19,30A2.19,2.19,0,0,0,25.43,104a2.15,2.15,0,0,0,1.44-.56,46.4,46.4,0,0,0,29,13,46.43,46.43,0,0,0,51.89-22.22,4.07,4.07,0,0,0,4.14-6.78A44.66,44.66,0,0,0,117.34,56Zm-.17,8.55a43.71,43.71,0,0,1-6.06,22.22A46,46,0,0,0,109,51.21,46.68,46.68,0,0,0,84.29,21.55a46.28,46.28,0,0,1,18.15,10.14,3.23,3.23,0,0,0,4.39,4.56A44.35,44.35,0,0,1,115.32,52a2.24,2.24,0,0,0-1.5,2.13,2.27,2.27,0,0,0,2.27,2.27,2.58,2.58,0,0,0,.29,0A43.51,43.51,0,0,1,117.17,64.54ZM68.85,114.48a2.32,2.32,0,0,0-4.58.5,2.42,2.42,0,0,0,0,.25,47.27,47.27,0,0,1-5.07.28c-1.08,0-2.15-.05-3.2-.12A45.54,45.54,0,0,1,29.49,96.52,46.15,46.15,0,0,0,42,104.22a45.53,45.53,0,0,0,22.52,5.94c.54,0,1.07,0,1.6,0A47.58,47.58,0,0,0,82.54,109l0,0A45.56,45.56,0,0,1,68.85,114.48Zm-3.73,2.27c-1.16,0-2.3-.16-3.43-.3,1,0,2-.15,2.93-.26A2.23,2.23,0,0,0,65.12,116.75Zm-49.81-46a5.39,5.39,0,0,0,3.4-1.42,46.43,46.43,0,0,0,3.47,12.84c.12.52.25,1,.39,1.55a2.31,2.31,0,0,0-1.94-1,2.34,2.34,0,0,0-.88.17A45.32,45.32,0,0,1,15.31,70.74Zm94.33-7.14A45.54,45.54,0,0,1,101.23,90a46,46,0,0,0,4.53-20c0-.71,0-1.41-.06-2.12a3.19,3.19,0,0,0-.13-6.29c0-.17,0-.35,0-.53a46.67,46.67,0,0,0-4.27-19.53,45.15,45.15,0,0,1,6.72,10A45.82,45.82,0,0,1,109.64,63.6ZM23.13,81.84a45,45,0,0,1,2.38-27.91,44.85,44.85,0,0,0,9.93,40.3,3.16,3.16,0,0,0-.68,2A3.19,3.19,0,0,0,38,99.37a3.15,3.15,0,0,0,1.94-.68,47.24,47.24,0,0,0,10.92,7.16,44.81,44.81,0,0,1-8.4-2.53A45.73,45.73,0,0,1,23.13,81.84Zm12,17.66a44.87,44.87,0,0,1-7.55-6.11,44,44,0,0,1-2.85-6.19A46.61,46.61,0,0,0,35.14,99.5ZM19.38,62.1a45.6,45.6,0,0,1,8.13-24.58A45.63,45.63,0,0,1,43.83,27.31,46.31,46.31,0,0,0,27.39,48a45.74,45.74,0,0,0-6.18,28.49,45.71,45.71,0,0,1-1.63-8.24,5.39,5.39,0,0,0-.2-6.19ZM66.45,20.9a5.31,5.31,0,0,0,3.3-1.17c.48,0,1,0,1.45,0a47.19,47.19,0,0,1,7.08.54c1.1.35,2.17.75,3.23,1.19a44.21,44.21,0,0,1,4.63,3,4.32,4.32,0,0,0-1.69-.34,4.38,4.38,0,0,0-4.16,3,47.27,47.27,0,0,0-7.75-1.55,46.14,46.14,0,0,0-21.88-1.14A46.34,46.34,0,0,1,64,20.25,5.28,5.28,0,0,0,66.45,20.9Zm-7,85.79c-1.54,0-3.07-.08-4.57-.23A46.19,46.19,0,0,1,40.59,98,3.19,3.19,0,0,0,38,93a3.23,3.23,0,0,0-1.79.54,43.83,43.83,0,0,1-7.87-45.05A45.67,45.67,0,0,1,41.16,34.59a2.32,2.32,0,0,0,4.16-1.43,2.25,2.25,0,0,0-.25-1,45.14,45.14,0,0,1,22.25-5.84,46.2,46.2,0,0,1,5,.28,45.17,45.17,0,0,1,7.93,3.24,4.38,4.38,0,0,0,4.18,3.08,4,4,0,0,0,.78-.08,45.51,45.51,0,0,1,18.76,29,3.17,3.17,0,0,0,.1,6A45.35,45.35,0,0,1,59.43,106.69Zm18.4-79.17c.76.18,1.51.38,2.26.6,0,.12,0,.24,0,.37s0,.05,0,.08C79.33,28.2,78.59,27.85,77.83,27.52Zm8.57,4.89a4.3,4.3,0,0,0,1.47-1.2A45.68,45.68,0,0,1,99,39.13a45.56,45.56,0,0,1,5.59,20.44A46.52,46.52,0,0,0,86.4,32.41Zm2-2a4.26,4.26,0,0,0-.48-4.53,45.65,45.65,0,0,1,9.25,10.35A46.71,46.71,0,0,0,88.41,30.36ZM59.23,24.63a46,46,0,0,1,7.66.66,46.14,46.14,0,0,0-22.47,6,2.3,2.3,0,0,0-1.43-.5,2.33,2.33,0,0,0-2.33,2.33,2.74,2.74,0,0,0,.06.51A47.1,47.1,0,0,0,31,42.81a45.72,45.72,0,0,1,16.35-16.6A45.65,45.65,0,0,1,59.23,24.63Zm-4.62,82.81c1.42.52,2.87,1,4.34,1.37a44.33,44.33,0,0,1-9.23-2.17A46.15,46.15,0,0,0,54.61,107.44Zm4,.23.83,0a45.5,45.5,0,0,0,21.5-5.38,5.45,5.45,0,0,0-.55,2.39,5.36,5.36,0,0,0,.2,1.46,44.18,44.18,0,0,1-14.44,3A46.74,46.74,0,0,1,58.6,107.67Zm22.34-.57a5.42,5.42,0,0,0,.72,1.11A46.32,46.32,0,0,1,73,109.35,44.92,44.92,0,0,0,80.94,107.1Zm9.61-5.1q1.77-1.23,3.42-2.61a43.72,43.72,0,0,1-3.09,3.3A4.37,4.37,0,0,0,90.55,102Zm-.57-.82a5.44,5.44,0,0,0-4.1-1.93,46.64,46.64,0,0,0,18.87-29.36c0,.06,0,.12,0,.18a45.1,45.1,0,0,1-7.27,24.58A45.36,45.36,0,0,1,90,101.18Zm9.77-62.67a46.91,46.91,0,0,0-11-13.28,45.67,45.67,0,0,1,17.61,21.44A46.55,46.55,0,0,0,99.75,38.51ZM71.2,18.69h-.45a1.39,1.39,0,0,0,.15-.19l1.26.21Zm-8.4.75A47.35,47.35,0,0,0,47,25.28,46.5,46.5,0,0,0,30.73,33.4,44.94,44.94,0,0,1,61.79,18.13,5.16,5.16,0,0,0,62.8,19.44ZM18.41,61.1a5.39,5.39,0,0,0-3.36-1.17h-.19A45.29,45.29,0,0,1,23.94,41.4,46.66,46.66,0,0,0,18.41,61.1Zm4.55,24a45.52,45.52,0,0,0,2.14,5.6,42.86,42.86,0,0,1-3-3.89A2.35,2.35,0,0,0,23,85.06Zm68.23,18.72a46.66,46.66,0,0,0,7.09-8.51,46.75,46.75,0,0,0,11.81-38.82,44.92,44.92,0,0,1,.08,30,4.36,4.36,0,0,0-1.1-.16,4.06,4.06,0,0,0-2.68,7.13,46.07,46.07,0,0,1-15.13,11.52c0-.06,0-.13,0-.19A5.52,5.52,0,0,0,91.19,103.78Zm-17-85.69c-.93-.2-1.86-.38-2.8-.52,0-.11.06-.22.1-.33C72.41,17.5,73.31,17.78,74.2,18.09Zm-44.76,9a3.3,3.3,0,0,0,1.7.48,3.26,3.26,0,0,0,3.26-3.26,3.21,3.21,0,0,0-.16-1,44.56,44.56,0,0,1,25.19-7.78c.56,0,1.12,0,1.67,0a5.59,5.59,0,0,0,.27,1.54,46,46,0,0,0-34.62,19.7A46.53,46.53,0,0,0,14.44,57.51,45.63,45.63,0,0,1,29.44,27.12Zm-2,75.46a2.15,2.15,0,0,0,.16-.8,2.18,2.18,0,0,0-2.18-2.18,2.08,2.08,0,0,0-.66.12A45.16,45.16,0,0,1,13.71,70.58l.56.11a46.55,46.55,0,0,0,4.66,12.73,2.32,2.32,0,0,0,1.7,3.91,2.36,2.36,0,0,0,.61-.09A47,47,0,0,0,26.79,94a46.53,46.53,0,0,0,23.8,20.67A45.52,45.52,0,0,1,27.45,102.58ZM68,116.79a2.32,2.32,0,0,0,.83-1.28,46.22,46.22,0,0,0,14.71-5.86,5.54,5.54,0,0,0,2.27.5,5.45,5.45,0,0,0,5.27-4.08,47.15,47.15,0,0,0,14.67-10.51A45.42,45.42,0,0,1,68,116.79Z"/></svg>