<svg xmlns="http://www.w3.org/2000/svg" data-name="Layer 1" viewBox="0 0 128 128"><circle cx="26.45" cy="101.55" r="7.1"/><circle cx="101.55" cy="26.45" r="7.1"/><circle cx="26.45" cy="26.45" r="7.1"/><circle cx="101.55" cy="101.55" r="7.1"/><path d="M90.84 80l10.64 10.63a45.94 45.94 0 000-53.3L90.84 48a31.24 31.24 0 010 32zM80 90.84a31.24 31.24 0 01-32 0L37.35 101.48a45.94 45.94 0 0053.3 0zM48 37.16a31.24 31.24 0 0132 0L90.65 26.52a45.94 45.94 0 00-53.3 0zM37.16 48L26.52 37.35a45.94 45.94 0 000 53.3L37.16 80a31.24 31.24 0 010-32z"/><circle cx="34.76" cy="34.76" r="2"/><circle cx="93.24" cy="93.24" r="2"/><circle cx="64" cy="64" r="2"/><circle cx="68.87" cy="68.87" r="2"/><circle cx="73.75" cy="73.75" r="2"/><circle cx="78.62" cy="78.62" r="2"/><circle cx="83.5" cy="83.5" r="2"/><circle cx="88.37" cy="88.37" r="2"/><circle cx="39.63" cy="39.63" r="2"/><circle cx="44.5" cy="44.5" r="2"/><circle cx="49.38" cy="49.38" r="2"/><circle cx="54.25" cy="54.25" r="2"/><circle cx="59.13" cy="59.13" r="2"/><circle cx="93.24" cy="34.76" r="2"/><circle cx="34.76" cy="93.24" r="2"/><circle cx="59.13" cy="68.87" r="2"/><circle cx="54.25" cy="73.75" r="2"/><circle cx="49.38" cy="78.62" r="2"/><circle cx="44.5" cy="83.5" r="2"/><circle cx="39.63" cy="88.37" r="2"/><circle cx="88.37" cy="39.63" r="2"/><circle cx="83.5" cy="44.5" r="2"/><circle cx="78.62" cy="49.38" r="2"/><circle cx="73.75" cy="54.25" r="2"/><circle cx="68.87" cy="59.13" r="2"/></svg>