<svg xmlns="http://www.w3.org/2000/svg" data-name="Layer 1" viewBox="0 0 128 128"><path d="M108.29,89.63c-2-3.69-7.08-3.6-9.94-3.24-6.1.78-44.09-.33-44.09-.33-17,0-17.2-14.82-17.2-14.82H99.5A7.63,7.63,0,0,0,99.5,56H37.36S37.15,40.39,53.7,40.39c7.92,0,40.21-.9,44.45.06,4,.91,8.32-.16,10-4a7.64,7.64,0,0,0-4-10,37.56,37.56,0,0,0-8.81-1.12c-10.4,0-33.69-.14-41.61-.14-16.22,0-34.94,8-34.94,27.29,0,6.17.38,15.88.38,22.47,0,19.68,17.2,27.94,35.12,27.94,0,0,35.31-.46,42-.77a23,23,0,0,0,9-2.09A7.63,7.63,0,0,0,108.29,89.63Z"/></svg>