<svg xmlns="http://www.w3.org/2000/svg" data-name="Layer 1" viewBox="0 0 128 128"><path d="M95.54 25.58L69.33 11.66a11.37 11.37 0 00-10.69 0L32.43 25.58A5 5 0 0029.77 30V98a5 5 0 002.66 4.42l26.21 13.92a11.33 11.33 0 0010.69 0l26.21-13.92A5 5 0 0098.2 98V30A5 5 0 0095.54 25.58zM58.3 46.46l-24 12.73V34.13zm3.41 3.34V77.19a6.36 6.36 0 01-.93-.4L35.84 63.54zm4.55 0L92.13 63.54 67.19 76.79a6.36 6.36 0 01-.93.4zm3.41-3.34l24-12.33V59.19zM60.78 15.68a6.82 6.82 0 016.41 0L93 29.37 64.61 43.94a3 3 0 00-1.26 0L35 29.37zM93.4 98.4L67.19 112.32a6.8 6.8 0 01-6.41 0L34.56 98.4a.47.47 0 01-.24-.4V67.9L58.64 80.82a11.41 11.41 0 0010.69 0L93.65 67.9V98A.46.46 0 0193.4 98.4zM25.92 99V96.74H21.36V99a11.94 11.94 0 006.35 10.56l2.8 1.49 2.14-4-2.8-1.49A7.38 7.38 0 0125.92 99zM100.29 18.42l-2.8-1.48-2.14 4 2.8 1.48A7.41 7.41 0 01102.08 29v2.28h4.56V29A12 12 0 00100.29 18.42z"/></svg>