<svg xmlns="http://www.w3.org/2000/svg" data-name="Layer 1" viewBox="0 0 128 128"><path d="M98.73,13.19c-1.58-.79-11.6-5.44-21.15,2.49-9.13,7.58-12.35,20.89-14.5,29.84-.13.52-.27,1.15-.44,1.86l-22.5-3.05-1.33,6.15,22.43,3c-.79,3.48-1.73,7.64-2.74,12.07L37.05,62.68l-1.34,6.14,21.39,2.9C54.19,84.43,51,97.77,49.32,103.05,48,107.23,43.87,113.8,40,113.53c-6.34-.45-5.77-5-8.27-6.63s-5.15.23-5.71,2.72,3.72,6.27,7,6.85c6.29,1.14,12.18.13,18.86-5.77C57.7,105.55,62.68,90,65.17,80.46c.52-2,1.12-4.54,1.75-7.41l22.13,3,1.34-6.14-22.17-3c.83-4,1.68-8.21,2.45-12.11L91,57.55l1.33-6.15L71.9,48.64c.63-3.14,1.16-5.77,1.54-7.48,3.46-15.57,8.5-26.39,14-26.35,4.23,0,5.09,2.53,7.13,5,2.31,2.83,5.29,3.29,6.83.76C103.27,17.56,100.32,14,98.73,13.19Z"/></svg>