<svg xmlns="http://www.w3.org/2000/svg" data-name="Layer 1" viewBox="0 0 128 128"><polygon points="44.55 54.54 44.55 63.38 54.31 69.13 54.31 103.5 25.22 85.59 25.22 43.16 17.74 38.76 17.74 89.62 61.78 116.73 61.78 64.7 44.55 54.54"/><polygon points="66.22 64.7 66.22 84.07 73.08 80.06 73.08 68.61 103.14 50.91 103.14 85.62 66.22 108.48 66.22 116.73 110.26 89.62 110.26 38.76 66.22 64.7"/><polygon points="73.61 46.98 64 52.64 34.6 35.33 64 19.48 100.69 39.25 107.97 34.97 64 11.27 20.03 34.97 64 60.86 80.51 51.14 73.61 46.98"/></svg>