<svg xmlns="http://www.w3.org/2000/svg" data-name="Layer 1" viewBox="0 0 128 128"><path d="M109.06,38.51h0A19.37,19.37,0,0,0,89.7,19.15h-.11A19.37,19.37,0,0,0,70.23,38.5V59.56c-2.08.17-4.25.32-6.51.47l-6,.42v-22A19.37,19.37,0,0,0,38.4,19.15h-.11A19.37,19.37,0,0,0,18.94,38.5v51a19.37,19.37,0,0,0,19.35,19.35h.11A19.37,19.37,0,0,0,57.76,89.5v-21q3.12-.26,6.49-.47c2-.14,4-.27,6-.42V89.5a19.37,19.37,0,0,0,19.36,19.35h.11A19.37,19.37,0,0,0,109.05,89.5V38.81C109.06,38.71,109.06,38.61,109.06,38.51ZM38.29,27.15h.11A11.36,11.36,0,0,1,49.76,38.5V61.23a57.55,57.55,0,0,0-15.59,3.84,27.12,27.12,0,0,0-7.23,4.54V38.5A11.36,11.36,0,0,1,38.29,27.15ZM49.76,89.5A11.36,11.36,0,0,1,38.4,100.85h-.11A11.36,11.36,0,0,1,26.94,89.5c0-13.93,8.4-18.24,22.82-20.18Zm28.47-51A11.37,11.37,0,0,1,89.59,27.15h.11A11.36,11.36,0,0,1,101.05,38.5v.34c-.13,13.69-8.51,17.95-22.82,19.88ZM89.7,100.85h-.11A11.37,11.37,0,0,1,78.23,89.5V66.81A57.18,57.18,0,0,0,93.82,63a27.12,27.12,0,0,0,7.23-4.54V89.5A11.36,11.36,0,0,1,89.7,100.85Z"/></svg>