<svg xmlns="http://www.w3.org/2000/svg" data-name="Layer 1" viewBox="0 0 128 128"><path d="M99.63,51.19A18.5,18.5,0,1,0,76.81,28.37a1.46,1.46,0,0,1-1.83,1A36.34,36.34,0,0,0,29.37,75a1.46,1.46,0,0,1-1,1.83A18.5,18.5,0,1,0,51.19,99.63a1.46,1.46,0,0,1,1.83-1A36.34,36.34,0,0,0,98.63,53,1.46,1.46,0,0,1,99.63,51.19Zm-3.1-6.1a12.09,12.09,0,0,1-3.39.06,6.78,6.78,0,0,0-5.68,2h0A6.91,6.91,0,0,0,86,54.71,23.89,23.89,0,0,1,54.71,86a6.91,6.91,0,0,0-7.6,1.44h0a6.78,6.78,0,0,0-2,5.68,12.09,12.09,0,0,1-.06,3.39A11.86,11.86,0,1,1,31.47,82.91a12.09,12.09,0,0,1,3.39-.06,6.78,6.78,0,0,0,5.68-2h0A6.91,6.91,0,0,0,42,73.29,23.89,23.89,0,0,1,73.29,42a6.91,6.91,0,0,0,7.6-1.44,6.78,6.78,0,0,0,2-5.68,12.09,12.09,0,0,1,.06-3.39A11.86,11.86,0,1,1,96.53,45.09Z"/><circle cx="64.19" cy="63.81" r="13.61"/></svg>