<svg xmlns="http://www.w3.org/2000/svg" data-name="Layer 1" viewBox="0 0 128 128"><path d="M75.63 63.46A60.28 60.28 0 0 1 89.29 65v-1a25.35 25.35 0 0 0-50.69 0 26.39 26.39 0 0 0 .25 3.34 67 67 0 0 0-10.14 8.07A36.85 36.85 0 0 1 27 62.79 37.06 37.06 0 0 1 79 30.1a3.91 3.91 0 0 0 3.94-.47l8.58-6.48a1.31 1.31 0 0 0-.09-2.15A51 51 0 0 0 23 94.33a60.26 60.26 0 0 1 52.63-30.87Z"/><path d="M35.68 106.41a51 51 0 0 0 71-70.3 1.33 1.33 0 0 0-2.25 0l-6 10a3.89 3.89 0 0 0-.29 3.52A37.05 37.05 0 0 1 48.6 97.7a2.68 2.68 0 0 0-2.52.13l-10.33 6.38a1.31 1.31 0 0 0-.07 2.2Z"/><path d="M43 78.06a25.32 25.32 0 0 0 45.87-8.92A56.16 56.16 0 0 0 43 78.06Z"/></svg>