<svg xmlns="http://www.w3.org/2000/svg" data-name="Layer 1" viewBox="0 0 128 128"><path d="M59.5 112.77a2.22 2.22 0 01-2.66 3.34C44.79 111 30.71 99.94 30.71 80.9c0-23.33 23.26-32.23 28.95-50.41a52.83 52.83 0 002.6-17.69 1.64 1.64 0 012.93-1.06A48.86 48.86 0 0176 40.66c.75 16.08-16.46 29-22.14 42C48.75 94.55 54.66 106.07 59.5 112.77zM76.17 114.73a1.15 1.15 0 01-1.89.19c-2.67-3.14-8.45-11.23-7.74-19.8C67.81 79.78 77.22 69.63 80.9 63A31 31 0 0084.32 54a.76.76 0 011.28-.4c4.2 4.74 11.89 15.29 11.68 27.88-.35 21.4-14.91 26.28-19.87 31.54A7.94 7.94 0 0076.17 114.73z"/></svg>