<svg xmlns="http://www.w3.org/2000/svg" data-name="Layer 1" viewBox="0 0 128 128"><path d="M64 112c-7.15 0-18.88 6-20 6.44s-1.28-.06-.32-.83c2.61-2.09 18.4-14.8 20.31-14.86s17.7 12.77 20.31 14.86c1 .77.77 1.28-.32.83S71.15 112 64 112zm-.47-30.39a476.49 476.49 0 0 1 0-62.55.48.48 0 0 1 1 0 466.3 466.3 0 0 1 0 62.55.48.48 0 0 1-1 0zm25.35 35.79c-.41.41-17.64-13.21-18.6-14.17-1.15-1.15 4.35-4.24 4.35-9.63v-84c0-1.85.8-1.84 1.16 2.33 3 35.51 12.11 36.64 12.11 40.28 0 2.83-4.47 1.91-4.47 11.77 0 10.94.32 22.71.32 36.26 0 4.43 5.6 16.69 5.13 17.16zm-49.76 0c.41.41 17.64-13.21 18.6-14.17 1.15-1.15-4.35-4.24-4.35-9.63v-84c0-1.85-.8-1.84-1.16 2.33C49.18 47.43 40.1 48.56 40.1 52.2c0 2.83 4.47 1.91 4.47 11.77 0 10.94-.32 22.71-.32 36.26 0 4.44-5.6 16.7-5.13 17.17z"/></svg>