<svg xmlns="http://www.w3.org/2000/svg" data-name="Layer 1" viewBox="0 0 128 128"><path d="M69.38,20.06,51,30.65l14.62,8.92L57.12,44.5l-8.88-5.13v-11L27.89,40.13l16.24,9.38-4,2.29L20.73,40.57v23.5l5.85-3.38,3.76,2.16v6.71L12.27,80l19,11V84.77L50.69,73.55l-4.91-2.83L63.32,60.6l3.31,1.91V40.17l2.77,1.7v22L49.85,75.13,65,83.86l-8,4.64L43,80.45v21.91L50.59,98l15.32,8.84V84.4L88.15,97.24,107,85.82V41.6ZM65.71,40.6v8.86L58,45ZM47.32,30V50.29L29.72,40.13ZM21.64,42.15,39.25,52.32,21.64,62.48Zm9.61,41.56V63.39L48.86,73.55ZM44.87,70.19l-.07,0V49.9l2.52,1.46v9.39l8.13-4.69,6.95,4Zm11.5-14.66,9.34-5.4V60.92ZM65,105.23,51.51,97.45l10.46-6L57.85,89,65,84.9Z"/><polygon points="69.28 111.63 88.25 100.67 69.28 89.71 69.28 111.63"/></svg>