<svg xmlns="http://www.w3.org/2000/svg" data-name="Layer 1" viewBox="0 0 128 128"><path d="M64,106.86a6.19,6.19,0,0,1-6.25-5.47l-.67-5A18.23,18.23,0,0,1,44.5,81.22l-6-48.1a13.18,13.18,0,0,0-1.9-.13H33.14a13.72,13.72,0,0,0-4.69.82l.94,72H16.71v-59a16.46,16.46,0,0,1,9-14.68l-.05-3.72a7.2,7.2,0,0,1,2-5.2,7.06,7.06,0,0,1,5.16-2h0c4.23,0,7.25,2.81,7.69,7.17l.32,2.58a16.5,16.5,0,0,1,12,13.76L59.49,94.2a15.49,15.49,0,0,0,3.06.31h2.9a15.42,15.42,0,0,0,3.06-.31l6.62-49.55a16.47,16.47,0,0,1,12-13.76l.33-2.61c.43-4.33,3.45-7.14,7.68-7.14h.05a7.06,7.06,0,0,1,5.16,2,7.2,7.2,0,0,1,2,5.2l0,3.72a16.46,16.46,0,0,1,9,14.68v59H98.61l.94-72A13.72,13.72,0,0,0,94.86,33H91.43a13.18,13.18,0,0,0-1.9.13l-6,48.11A18.22,18.22,0,0,1,70.92,96.34l-.67,5A6.19,6.19,0,0,1,64,106.86ZM59.86,97,60.4,101a3.63,3.63,0,0,0,7.2,0L68.14,97a18.42,18.42,0,0,1-2.69.2h-2.9A18.42,18.42,0,0,1,59.86,97Zm41.46,6.14h7.3V46.75a13.76,13.76,0,0,0-6.41-11.63Zm-81.94,0h7.3l-.89-68a13.76,13.76,0,0,0-6.41,11.63ZM86.75,33.81a13.83,13.83,0,0,0-9,11.19L71.32,93.35A15.55,15.55,0,0,0,80.85,80.9Zm-45.5,0,5.9,47.08a15.55,15.55,0,0,0,9.53,12.46L50.23,45A13.83,13.83,0,0,0,41.25,33.81Zm50.18-3.49h3.43a16.45,16.45,0,0,1,4.73.69l0-2.69a4.15,4.15,0,0,0-4.46-4.51h0c-2.85,0-4.73,1.78-5,4.77l-.23,1.81C90.38,30.34,90.9,30.32,91.43,30.32ZM32.87,23.81h0a4.15,4.15,0,0,0-4.45,4.51l0,2.69a16.45,16.45,0,0,1,4.73-.69h3.43c.53,0,1,0,1.56.07l-.23-1.78C37.6,25.59,35.72,23.81,32.87,23.81Z"/></svg>