<svg xmlns="http://www.w3.org/2000/svg" data-name="Layer 1" viewBox="0 0 128 128"><path d="M42.43 52.87h60.19a1 1 0 001-1 31.12 31.12 0 00-62.2 0A1 1 0 0042.43 52.87zM36.93 63.26h69.65a2.25 2.25 0 000-4.5H36.93a2.25 2.25 0 000 4.5z"/><circle cx="29.24" cy="60.9" r="2.5"/><path d="M76,69.46a2.25,2.25,0,0,0-2.25-2.25H22.08a2.25,2.25,0,0,0,0,4.5H73.73A2.25,2.25,0,0,0,76,69.46Z"/><circle cx="14.37" cy="69.46" r="2.5"/><path d="M36.43,75.88a2.25,2.25,0,0,0,0,4.5H99.08a2.25,2.25,0,0,0,0-4.5Z"/><circle cx="28.28" cy="77.96" r="2.5"/><path d="M51.77,86.57a2.25,2.25,0,0,0-2.25-2.25H25.64a2.25,2.25,0,0,0,0,4.5H49.52A2.25,2.25,0,0,0,51.77,86.57Z"/><circle cx="18.11" cy="86.57" r="2.5"/><path d="M109.88 84.32H58.64a2.25 2.25 0 100 4.5h51.24a2.25 2.25 0 000-4.5zM100.52 93.09H68.64a2.25 2.25 0 000 4.5h31.88a2.25 2.25 0 100-4.5z"/><circle cx="61.13" cy="95.34" r="2.5"/><path d="M79.93,101.5H49.05a2.25,2.25,0,0,0,0,4.5H79.93a2.25,2.25,0,0,0,0-4.5Z"/><circle cx="41.76" cy="103.75" r="2.5"/></svg>