<svg xmlns="http://www.w3.org/2000/svg" data-name="Layer 1" viewBox="0 0 128 128"><path d="M89.46,89.19q2.15-2.59,4.34-5.58c15.57-21.27,15.32-48.64,15.3-49.8V33l-.69-.34a130.39,130.39,0,0,0-17.7-6.89H87.16A20.59,20.59,0,0,0,66.44,46.54C66.85,67.84,90.55,60.92,89.46,89.19Z"/><path d="M84.81,86.56c0-11.44-8-20.76-20.72-20.72-9.75,0-13.7,6.91-26.81,5.45A25,25,0,0,1,24.87,66,72.93,72.93,0,0,0,34.2,83.61c14.89,20.33,28.7,26.66,29.28,26.92l.52.23.52-.23c.41-.18,7.47-3.43,16.85-12.54A20.55,20.55,0,0,0,84.81,86.56Z"/><path d="M79.81,23A79.51,79.51,0,0,0,64,21.24c-21,0-43.45,11-44.4,11.46l-.69.34v.77c0,.29.63,8.84,1.07,12.35,1.77,14.1,9.56,21.22,21,21.22S62.2,58.26,62,46.82C61.85,36.3,67.35,26.61,79.81,23Z"/></svg>