<svg xmlns="http://www.w3.org/2000/svg" data-name="Layer 1" viewBox="0 0 128 128"><path d="M96.93,63.24c0-13.41-7.5-25.06-18.2-28.33a18.68,18.68,0,0,0-9.42-.44c5.47,4.66,14,14.31,14.19,29.07.14,14.26-6,22.93-11.62,27.9-5.19,4.76-11.19,7.29-17.36,7.29a23.43,23.43,0,0,1-6.87-1C35.09,93.83,26.32,80.41,26.32,65.05c0-27.28,18.1-49.78,41.2-52.43-1.16-.08-2.33-.14-3.52-.14A51.59,51.59,0,0,0,12.35,64c0,18.4,12.19,46.9,43.28,47.51h0C78.45,111.48,97,89.82,96.93,63.24Z"/><path d="M72.1,16.83c-22.77.47-41.3,21.63-41.3,48.22C30.8,78.46,38.27,90.12,49,93.4a18.51,18.51,0,0,0,9,.53A38.67,38.67,0,0,1,44.9,58.73C47.72,37.6,62.62,31.94,64.63,31.27A23,23,0,0,1,80,30.62c12.56,3.85,21.35,17.26,21.37,32.61,0,26.59-17.14,48.65-39.4,52.24.66,0,1.32,0,2,0A51.59,51.59,0,0,0,115.65,64C115.65,44,100.89,16.24,72.1,16.83Z"/></svg>