<svg xmlns="http://www.w3.org/2000/svg" data-name="Layer 1" viewBox="0 0 128 128"><path d="m58.53 51.46 6.39 19.34 6.26-19.34h5.51v24.95h-4.16V59.06l-5.71 17.35h-3.95L57 59.08v17.33h-3.84V51.46zM101 76.54h-3.76s-.32-2.51-.33-2.49A7 7 0 0 1 91 77.18c-7.09 0-11.36-5.47-11.36-12.71 0-7.6 3.94-13.45 11-13.45S101 55.33 101 59.87h-4.24c0-1.79-1.94-4.54-6-4.54S84 58.66 84 64.44c0 5.37 3.07 8.36 6.87 8.34 6.22 0 6.07-5.46 6.07-5.46H90.4V63.2H101zM38.3 50.83c-5.85 0-11.36 4.89-11.36 13 0 8.29 5.06 13.4 11.32 13.4 6 0 11.94-4.86 11.94-13.65 0-8.03-5.68-12.75-11.9-12.75zm.08 21.94c-3.87 0-7-3.38-7-8.86s3.4-8.61 7-8.61c3.84 0 7.35 3.12 7.35 8.44.03 5.82-3.65 9.03-7.35 9.03z"/><path d="M64 117.24A53.24 53.24 0 1 1 117.23 64 53.3 53.3 0 0 1 64 117.24Zm0-104A50.75 50.75 0 1 0 114.75 64 50.81 50.81 0 0 0 64 13.25Z"/></svg>