<svg xmlns="http://www.w3.org/2000/svg" data-name="Layer 1" viewBox="0 0 128 128"><path d="M54.58 102.41C82.28 100.28 94.65 82.71 97 67c2.51-17-2.93-29.08-16.64-37.07-.57-.34-1.16-.66-1.75-1-.7-.13-1.4-.23-2.11-.32C51.82 25.66 32.18 43.8 28 57.46a56.3 56.3 0 0 0 0 33.41 83.93 83.93 0 0 0 8.15 11.54 122.13 122.13 0 0 0 18.43 0Zm8.86-69c17.53.11 27.69 14.89 27.69 31a29.1 29.1 0 0 1-29 29.3c-16.13 0-30.26-13-30.26-29.09C31.9 47 47.32 33.27 63.44 33.37Z"/><path d="M23.43 80.47a57.2 57.2 0 0 1 2.28-23.71c4.21-13.85 22.14-31.2 45.93-30.87a91.1 91.1 0 0 0-25-5C34.52 33.1 25.83 43.35 22.35 66a33.13 33.13 0 0 0 1.08 14.47zm63.46-49.04c10.73 8.43 14.83 20.24 12.5 35.91a42.2 42.2 0 0 1-6.11 16.21c8.6-8.9 15.29-20.35 19.72-29.55-5.84-7.86-14.49-17.69-26.11-22.57z"/><path d="M114.4 56c-7 13.76-18.84 31.67-33 40-6.74 4.68-15.51 8-26.62 8.88-3.23.25-6.37.36-9.4.36-2.44 0-4.79-.08-7.08-.2 2.92 3.87 13 8.55 18.42 9.25 13 1.68 20.71-9.33 31.65-17.68 12.63-9.67 26.63-12.31 28.5-24C118 65.53 116 58.46 114.4 56zm-82.68 46 1 .11c-7.44-9.39-15-22-12.81-36.48 3.48-22.34 12.17-33.33 23.43-44.85h-2.71c-4.19.38-10.07 1.54-13.15 5-7.83 8.7-6.85 22.38-9.13 29.51S7.73 75.61 12 88.12c3.17 9.23 15.79 12.94 19.72 13.88zm17.11-83.32c10.16.85 21.46 3.25 30.58 8 15.82 3 27.2 14.93 34.53 24.59 1-4.22 2.51-13-.64-18-5.84-9.27-15.54-5-30.51-10.27-7-2.46-13.86-9.55-20.42-9.41a23.13 23.13 0 0 0-13.54 5.09z"/></svg>