<svg xmlns="http://www.w3.org/2000/svg" data-name="Layer 1" viewBox="0 0 128 128"><path d="m2.81 72.9 5.91 1.02 5.91-7.68 8.78 1.72.18 8.3-4.46 11.87-2.65 11.25-2.64 4.54 6.93-1.37-.93-4.81 6.09-12.26 11.38-4.55 4.54-7.41 7.37-5.42 15.22 2.47 14.43-6.62-2.3 10.19-6.88.44-1.63 8.65 5.96-3.88 9.04-3.93 7.63-11.6.27-5.47 3.92 3.97 11.6 7.23 7.02-3.17-.75-15.36-1.81-5.38 8.56-2.56 5.69-7.15-.13-4.19-1.33 3.44-6.88 6.05-7.94.97-1.94-2.07 6.62-9.49 8.47-2.38-9.04.39-11.08 7.86-10.19-.75-14.91-7.68-8.56 1.77-26.87 22.41-12.66 4.19-5.21 5.65-9.61.13-4.77 8.78-6.35 1.89z"/></svg>