<svg xmlns="http://www.w3.org/2000/svg" data-name="Layer 1" viewBox="0 0 128 128"><circle cx="56.24" cy="16.43" r="3.6"/><circle cx="67.25" cy="16.43" r="3.6"/><circle cx="56.24" cy="107.11" r="3.6"/><circle cx="67.25" cy="107.11" r="3.6"/><circle cx="107.09" cy="56.26" r="3.6"/><circle cx="107.09" cy="67.27" r="3.6"/><circle cx="16.41" cy="56.26" r="3.6"/><circle cx="16.41" cy="67.27" r="3.6"/><path d="M33.83 101.7a3.54 3.54 0 0 1-2.5-6l13.81-13.83a3.53 3.53 0 0 1 2.5-1H76a3.53 3.53 0 0 1 2.5 1l22.63 22.66a3.54 3.54 0 0 1-5 5L74.49 87.91H49.1l-12.78 12.76a3.5 3.5 0 0 1-2.49 1.03zM76 42.7H47.5a3.52 3.52 0 0 1-2.51-1L31.3 27.88a3.54 3.54 0 0 1 5-5L49 35.63h25.54L87.08 23a3.54 3.54 0 1 1 5 5L78.52 41.66A3.52 3.52 0 0 1 76 42.7zM25.44 93.18a3.54 3.54 0 0 1-2.49-6l12.61-12.62V49.17L22.81 36.39a3.54 3.54 0 0 1 5-5L41.6 45.21a3.54 3.54 0 0 1 1 2.5V76a3.58 3.58 0 0 1-1 2.51L27.94 92.15a3.51 3.51 0 0 1-2.5 1.03zM107 102.2a3.5 3.5 0 0 1-2.49-1l-22.7-22.61a3.54 3.54 0 0 1-1-2.51V47.56a3.55 3.55 0 0 1 1-2.51l13.78-13.68a3.54 3.54 0 0 1 5 5L87.84 49v25.61l21.61 21.54a3.54 3.54 0 0 1-2.5 6z"/><path d="M64.24 31.43h6a3.53 3.53 0 0 0 2.49-1l8.65-8.58a3.54 3.54 0 1 0-5-5l-7.62 7.55h-4.52zm-13.87-1.07a3.54 3.54 0 0 0 2.53 1.07h6.27v-7.08h-4.78l-7.31-7.5A3.54 3.54 0 0 0 42 21.79zm8.8 61.75h-6a3.53 3.53 0 0 0-2.5 1l-8.63 8.58a3.54 3.54 0 1 0 5 5l7.6-7.56h4.51zm13.58 1.03a3.55 3.55 0 0 0-2.5-1h-6v7.07h4.55l7.55 7.54a3.54 3.54 0 0 0 5-5zm26.37-33.91v-4.77l7.5-7.32a3.54 3.54 0 1 0-4.94-5.06l-8.57 8.35A3.56 3.56 0 0 0 92 53v6.26zm7.56 17.21-7.56-7.62V64.3H92v6a3.55 3.55 0 0 0 1 2.5l8.58 8.65a3.54 3.54 0 0 0 5-5zM24.29 54.72v4.51h7.07v-6a3.53 3.53 0 0 0-1-2.49l-8.58-8.63a3.54 3.54 0 0 0-5 5zm0 9.58v4.55l-7.54 7.56a3.54 3.54 0 0 0 5 5l8.57-8.59a3.53 3.53 0 0 0 1-2.5v-6z"/><circle cx="108.41" cy="108.4" r="3.6"/></svg>