<svg xmlns="http://www.w3.org/2000/svg" data-name="Layer 1" viewBox="0 0 128 128"><polygon points="82.51 26.67 51.34 36.4 86.11 40.34 82.51 26.67"/><polygon points="81.73 25.99 71.99 21.66 50.98 35.59 81.73 25.99"/><polygon points="72.15 20.76 75.87 22.42 67.38 12.71 62.27 15.18 72.15 20.76"/><polygon points="50.05 37.15 60.52 97.57 77.21 97.57 50.05 37.15"/><polygon points="79.59 16.8 68.22 12.3 68.2 12.31 77.69 23.16 79.59 16.8"/><polygon points="56.25 21.8 54.96 27.09 69.44 21.63 56.25 21.8"/><polygon points="80.38 17.25 78.49 23.58 82.39 25.37 80.38 17.25"/><polygon points="56.55 20.91 70.31 20.74 61.57 15.8 61.79 15.42 56.55 20.91"/><polygon points="49.22 37.55 31.76 117.88 59.67 97.82 49.22 37.55"/><polygon points="68.45 22.95 54.57 28.18 50.5 34.85 68.45 22.95"/><polygon points="79.13 92.83 92.71 48.1 86.84 42.23 79.13 92.83"/><polygon points="51.12 37.27 77.68 96.47 86.1 41.23 51.12 37.27"/><polygon points="81.34 17.46 83.22 25.09 96.24 21.6 81.34 17.46"/><polygon points="79.4 15.77 76.81 11.88 70.35 12.2 79.4 15.77"/></svg>