<svg xmlns="http://www.w3.org/2000/svg" data-name="Layer 1" viewBox="0 0 128 128"><path d="M68.56 52.68c-2.82-.7-5.39-1.31-5.39-1.31l-2.1 8.73s2.89.74 5.59 1.35a5.07 5.07 0 0 0 6.26-3.77c.48-2.36-1.67-4.34-4.36-5Z"/><path d="M64 23.75A40.25 40.25 0 1 0 104.24 64 40.24 40.24 0 0 0 64 23.75Zm16.27 46.42c1.65 5.56-3.42 14.14-13.66 11.68l-2-.48-1.78 7.37-4.33-1 1.77-7.37-3.86-.93-1.77 7.37-4.34-1 1.78-7.37-9.52-2.29 2.36-4.93 3.73.9A1.43 1.43 0 0 0 50.4 71l5-20.82a1.29 1.29 0 0 0-.95-1.56l-4-1 1.17-4.85 8.55 2.06 1.7-7 4.33 1.05-1.69 7 3.86.93 1.69-7 4.34 1-1.7 7c6 2.16 8.41 5.56 8.51 10a6.59 6.59 0 0 1-5.53 7s3.58 1.95 4.59 5.36Z"/><path d="m66.66 66.15-6.75-1.64-2.23 9.68s3.57.92 6.36 1.54c3.78.83 6.66-.3 7.37-3.41s-1.89-5.49-4.75-6.17zm32.57 24.32a44 44 0 0 1-29.9 17.26l-11.85 6.84A51.86 51.86 0 0 0 64 115a51 51 0 0 0 47.08-31.38zm7.42-37.57a44.53 44.53 0 0 1 .95 4.76L114 54c-.32-1.57-.71-3.12-1.16-4.64zm-3.52-9.15a44.53 44.53 0 0 1 2 4.39l6.07-3.51q-.92-2.24-2-4.36zm-22.35-20.5a45.13 45.13 0 0 1 5.08 2.5l6.8-3.93A49.39 49.39 0 0 0 88.08 19zm-60.44 34.9L13 62.36V64c0 1.25.06 2.49.15 3.72l6.79-3.92a43.94 43.94 0 0 1 .4-5.65zM66.86 20a44.9 44.9 0 0 1 7.67 1.17l8.11-4.68a50.26 50.26 0 0 0-6.23-2zm41.2 44a46 46 0 0 1-.27 4.86L115 64.7V64c0-1.63-.08-3.24-.23-4.83L108 63.06c0 .31.06.62.06.94zM33.08 95.38 26.88 99a51.3 51.3 0 0 0 3.44 3.32l6.4-3.69a46.39 46.39 0 0 1-3.64-3.25zm61.13-63.44 6.24-3.6Q98.74 26.6 96.88 25l-6.44 3.72a44.12 44.12 0 0 1 3.77 3.22zm3.46 3.65a43.66 43.66 0 0 1 3 3.94l6-3.47a54.28 54.28 0 0 0-2.9-4zm16.89 35.01-7.93 4.58a43 43 0 0 1-2.38 6.73l9.17-5.29a50 50 0 0 0 1.14-6.02zm-68.25 33.75a43.37 43.37 0 0 1-5.16-2.67l-6.71 3.87a50.37 50.37 0 0 0 4.67 3zm13.07 3.47a43.7 43.7 0 0 1-7-1.32l-8 4.6a50.54 50.54 0 0 0 5.82 2zM30.52 35.38A44 44 0 0 1 56 20.68l12.89-7.44Q66.46 13 64 13a51 51 0 0 0-46.4 29.83zm-9.4 38.76a46.32 46.32 0 0 1-.86-4.87L13.81 73a47.36 47.36 0 0 0 1.08 4.75zm-7.55-17.73 8.12-4.69a43.91 43.91 0 0 1 2.79-7.21L15 50a50.21 50.21 0 0 0-1.43 6.41zm16.15 35.26a45.06 45.06 0 0 1-2.82-3.91l-6 3.47q1.29 2 2.76 3.94zm-5.23-8.17a42.42 42.42 0 0 1-1.94-4.5l-6.08 3.52a48.69 48.69 0 0 0 2 4.49z"/></svg>