<svg xmlns="http://www.w3.org/2000/svg" data-name="Layer 1" viewBox="0 0 128 128"><path d="M55.08 98.09c-.71 0-1.43 0-2.17-.09a1 1 0 01.18-2 28.14 28.14 0 0010.57-1.29 1 1 0 01.68 1.88A30.42 30.42 0 0155.08 98.09zM64 104.25a14.66 14.66 0 01-3.24-.28 1 1 0 11.48-1.94 13.14 13.14 0 002.76.22 13.57 13.57 0 002.76-.22 1 1 0 11.48 1.94A14.66 14.66 0 0164 104.25z"/><path d="M64,96.65a1,1,0,0,1-1-1V90a1,1,0,0,1,2,0v5.65A1,1,0,0,1,64,96.65Z"/><path d="M63.92 81.12c-2.75 0-5.57.87-5.64 2.94-.13 3.7 3.18 7.44 5.64 7.35 2.53.09 5.93-3.65 5.8-7.35C69.64 82 66.75 81.12 63.92 81.12zM72.92 98.09a30.42 30.42 0 01-9.26-1.5 1 1 0 11.68-1.88A28.51 28.51 0 0074.91 96a1 1 0 01.18 2C74.35 98.06 73.63 98.09 72.92 98.09z"/><polygon points="74.36 97.01 70.57 97.07 70.32 104.57 74.36 97.01 74.36 97.01"/><polygon points="53.64 97.01 57.68 104.57 57.43 97.07 53.64 97.01 53.64 97.01"/><path d="M99.61,57.35s7.38-22.53,5.71-30.64c-.91-4.4-3.23-6.26-8.21-4.33-8.2,3.18-15.85,15.21-15.85,15.21A80.71,80.71,0,0,0,64,35.35h0a80.71,80.71,0,0,0-17.26,2.24s-7.65-12-15.85-15.21c-5-1.93-7.3-.07-8.21,4.33C21,34.82,28.39,57.35,28.39,57.35a131.8,131.8,0,0,0-4.91,13.47c-1.06,4-.89,10.68-.89,10.68h0v.74a21.44,21.44,0,0,0,4.59,13.54C34.91,106,53.32,114,64,114S93.09,106,100.81,95.78a21.45,21.45,0,0,0,4.59-13.54V81.5h0s.17-6.71-.89-10.68A131.8,131.8,0,0,0,99.61,57.35ZM79,58.92c.31-1.75,1.85-4.12,4.12-4.12,2,0,4.46,2.57,4.51,4.28s-2,2.53-4.39,2.43S78.71,60.68,79,58.92Zm1.12,8.9c3.77-2.19,8.41-3.95,9.64-2.83s1.17,6-5.31,8.57c-5.72,2.25-10.24,1.36-10.77.31C72.79,72.06,78,69.08,80.14,67.82Zm-35.28-13c2.27,0,3.81,2.37,4.12,4.12s-1.86,2.48-4.24,2.59-4.44-.73-4.39-2.43S42.82,54.8,44.86,54.8ZM38.22,65c1.23-1.12,5.87.64,9.64,2.83,2.16,1.26,7.35,4.24,6.44,6.05-.53,1-5,1.94-10.77-.31C37.05,71,37,66.1,38.22,65Zm61,29.59C92,104.22,74,112,64,112s-27.95-7.77-35.21-17.41a19.14,19.14,0,0,1-4.18-11.79,43.4,43.4,0,0,1,11.7,1.09c3.81,1.06,9.12,6.23,9.18,6.28l1.19,1.17.47-1.6c0-.07,2.06-7,5.65-10,2.93-2.47,6.39-3.58,11.2-3.58s8.27,1.11,11.2,3.58c3.59,3,5.63,9.93,5.65,10l.47,1.6,1.19-1.17c.06,0,5.37-5.22,9.18-6.28a43.82,43.82,0,0,1,11.7-1.09A19.14,19.14,0,0,1,99.21,94.58Z"/></svg>