<svg xmlns="http://www.w3.org/2000/svg" data-name="Layer 1" viewBox="0 0 128 128"><path d="M36.58 95.2V36.56h56.57v-9.27H25.93v77.18h67.22V95.2H36.58z"/><path d="M101.1 75.7c0-5.34-4.82-5.7-8.87-6.17-14.86-1.71-17.69-8-17.69-14.39a10.93 10.93 0 0 1 2.25-6.81 14.57 14.57 0 0 1 6.36-4.59 24.7 24.7 0 0 1 9.25-1.64 21.73 21.73 0 0 1 9 1.78c2.64 1.19 8.22 5.58 8.22 11.65h-9.7c0-2.8-3-5.14-8.09-5.14-4.33 0-7.52 2.08-7.52 4.72 0 2.85 1.72 4.9 8 5.45 7.67.67 18.82 2 18.82 14.26 0 11.05-9.64 15-18.55 15-10.28 0-19-5.93-19-14.59h9.23c.14 3.33 4.29 6.24 9.82 6.16 4.53-.05 8.47-2.39 8.47-5.69Z"/></svg>