<svg xmlns="http://www.w3.org/2000/svg" data-name="Layer 1" viewBox="0 0 128 128"><path d="M64 13a51 51 0 1 0 51 51 51 51 0 0 0-51-51ZM17.75 59.2a46.5 46.5 0 0 1 92.5 0 1.49 1.49 0 0 1-1.34 1.64h-.15a1.49 1.49 0 0 1-1.49-1.35 43.5 43.5 0 0 0-86.54 0 1.5 1.5 0 1 1-3-.3ZM65.29 94h-2v3.4a1.94 1.94 0 0 1-3.88 0v-3.78c-9.76-1.36-18.11-6.29-18.11-16.44h12c0 3.09 3.37 7.74 12.12 7.74 3.91 0 9.32-2.2 9.32-6.09 0-2.31-1-3.87-4-5.19v8.11a13.45 13.45 0 0 1-3.88 1.08V72.35c-1-.27-2.22-.54-3.54-.82v11.28a17.07 17.07 0 0 1-3.94-.81V70.76c-9.83-2-16.34-5.58-16.34-15a11.37 11.37 0 0 1 2.78-7.57 18.12 18.12 0 0 1 7.9-5.11 33.83 33.83 0 0 1 11.47-1.83 29.61 29.61 0 0 1 11.14 2c5.33 2.13 10.09 7.55 10.09 13.2l-11.3.17a7.79 7.79 0 0 0-4.44-5.06v10.17c-1.31-.33-2.62-.6-3.88-.87V50.42a16.37 16.37 0 0 0-2-.13c-.53 0-1 0-1.51.05v9.76a25.89 25.89 0 0 1-3.88-1.18v-7.83c-2.55.93-3.91 2.63-3.91 4.91 0 6.65 10.83 5.74 19.83 9.12C85.19 68.83 87 73.89 87 79.54s-5.58 12.39-16.32 14.07v3.76a1.94 1.94 0 0 1-3.88 0V94h-1.51Zm-16-59.15a2.34 2.34 0 0 1 0-4.68h32.56a2.34 2.34 0 1 1 0 4.68Zm21.41 1.94v2.85a32 32 0 0 0-3.88-.4v-2.43Zm-7.42 0v2.46c-1.33.06-2.63.19-3.88.37v-2.81Zm47 32a46.5 46.5 0 0 1-92.5 0 1.5 1.5 0 0 1 3-.3 43.5 43.5 0 0 0 86.54 0 1.5 1.5 0 0 1 3 .3Z"/></svg>