<svg xmlns="http://www.w3.org/2000/svg" data-name="Layer 1" viewBox="0 0 128 128"><path d="M64,7.82,9.62,62.21c6.32-3.48,15.89-7.74,24.81-7.74a45.17,45.17,0,0,1,10.85,1.39,15,15,0,0,1-.41-3.54c0-8.18,5.85-14.2,16.19-15.19v-7.2h5.22v7.13C76.55,38,83,45.3,83,52.64H75.69c0-4.59-4-9.5-11.65-9.5-5.13,0-12,2-12,9.23,0,4.55,3.6,7.2,12.63,9.07,6,1.25,12.6,2.89,16.15,7.45A47.48,47.48,0,0,0,92.1,70.32a65.56,65.56,0,0,0,27.8-6.6Z"/><path d="M92.1,71.36a47.33,47.33,0,0,1-10.42-1.2,13.54,13.54,0,0,1,1.74,7c0,9.89-7.41,15.09-17.2,15.87v7.19H61V93c-8.88-.8-17.42-5.78-17.42-16h7c.5,7.2,7,9.84,13.36,9.84,6,0,12.36-2,12.36-9.2,0-5.6-4-7.84-13.65-9.88-6.76-1.42-14.61-3.88-17-10.81a44.45,44.45,0,0,0-11.21-1.49c-9.73,0-20.28,5.2-26.33,8.75L64,120.18l54.81-54.81A66.08,66.08,0,0,1,92.1,71.36Z"/></svg>