<svg xmlns="http://www.w3.org/2000/svg" data-name="Layer 1" viewBox="0 0 128 128"><path d="m56.1 57.25-23.51-12.9 23.51-13Zm0-31L30.3 40.57v-8.49l21.84-11.92 4 2.18Zm16.2 44.92 23.07 12.65L72.3 96.6Zm25.4 24.5-22 12.18-3.4-1.85v-4.36l25.4-14.06Zm2.3-14.31L60.52 59.67V19.73l-8.37-4.61-26.27 14.33V43l-12.15 6.75v28.64l12.15 6.74v13.15l26.38 14.6 8.26-4.45v-39.3l-4.42-2.42v30.11l-19-10.56-2.33 1.21V90l21.33 11.88v3.91l-3.81 2-22-12.17V85L41 79.48a4.46 4.46 0 0 0 6.8-3.82 4.49 4.49 0 0 0-9 0l-10.66 5.7-10-5.54V52.36l10.2-5.59 39.53 22v39.91l7.85 4.22 26.39-14.6V85.13l12.15-6.74V49.75L102.12 43V29.45L75.93 15.17l-8.05 4.32v39.8l4.42 2.42V31.53L91 41.84l2.34-1.28v-2.47L72.3 26.48v-4.35l3.61-1.94L97.7 32.08v11.09l-10.26 5.59A4.48 4.48 0 1 0 85.06 57a4.48 4.48 0 0 0 4.47-4.38l10.67-5.83 9.65 5.53v23.47Z"/></svg>