<svg xmlns="http://www.w3.org/2000/svg" data-name="Layer 1" viewBox="0 0 128 128"><path d="M91.67 81.42A59.35 59.35 0 0132.53 27a48.58 48.58 0 1077.89 51.38A59.27 59.27 0 0191.67 81.42zM111.71 54.79A48.61 48.61 0 0064 15.41c-7.45 0-14.61 1.24-20.54 4.93-1.66 1-1.28 3.67-.34 5.21 2.75 4.51 25.24 15.09 49.57 22.08C101.86 50.26 107.83 52.73 111.71 54.79zM94.65 52q-2.43-.72-4.82-1.47A48.13 48.13 0 0096.07 58c3.36 3.06 10.43 8.43 16.06 12.61a49.54 49.54 0 00.46-6.6 47.71 47.71 0 00-.35-5.64A134.39 134.39 0 0094.65 52z"/></svg>