<svg xmlns="http://www.w3.org/2000/svg" data-name="Layer 1" viewBox="0 0 128 128"><path d="M80.41 110.86C78.83 108.75 80.25 102.39 93 96c9.31-4.63 15.82-7.11 16.3-6.15s-5.63 11.91-16.46 18.7C85.55 113.16 81.85 112.78 80.41 110.86zM15.42 47.12s18 20.54 24.6 35.05a49.41 49.41 0 013.25 30.36s-14.15-5-22.21-18.11C12.28 80.15 11.3 68 12.38 60.07 13.61 51.17 15.42 47.12 15.42 47.12zM16.88 42.37C39.24 38.7 54 26.73 50.41 20.87c-1.52-2.47-5.25-3-10.85-1.95A52.39 52.39 0 0016.88 42.37zM96.87 24.74c-4.68-2.11-8.64-2.16-15.06-1.08-9.47 1.59-40.75 9.51-41.47 27.41C40 60.62 54.41 76 94 84.14a60.34 60.34 0 0017.84 1.24 52.15 52.15 0 00-15-60.64z"/><path d="M92.23 94.41a71.19 71.19 0 0114-5.68c.34-.62.39-.59.68-1.18A76.19 76.19 0 0194.55 86.3a152.69 152.69 0 01-30-9c-5.43 4.74-8.25 8-8.15 12.41.11 4.79 4.69 18.38 17.42 22.32a9.93 9.93 0 004.06-.52C76.14 107.39 79.1 101.09 92.23 94.41zM80.65 22.34c8.95-1.39 12.21.46 9.55-1.11-11.63-6.88-30.26-6.81-41.44-3.88-.27.07-.45.17-1 .35 2.38.18 3.87.75 4.77 2.21C55 24 49.45 32.64 35.82 38.5c1.69 2.63 1.59 2.66 4.72 5C47.12 30 72.34 23.64 80.65 22.34z"/></svg>