<svg xmlns="http://www.w3.org/2000/svg" data-name="Layer 1" viewBox="0 0 128 128"><path d="M72,59.75,97.65,34.14V30.63H50.05V10.76L32.7,14.18v2.67s5.35-.09,5.35,5.1v8.68H24v6.3h14V72.18c0,3.61,3.46,13.77,16,13.77,8.51,0,10.09-4.32,10.09-4.32V77.76a9.94,9.94,0,0,1-6.22,2.57c-3.87,0-7.89-2.93-7.89-9.23V36.93H83.78L59.61,61.24v5.94S86.38,71.11,87.86,91c.78,10.36-5.46,20.51-20.64,20.51-6.89,0-13.64-3.5-13.06-5a6.68,6.68,0,0,0,4-6.3,7,7,0,0,0-6.93-6.8c-6.13,0-8.24,4.77-8.24,7,0,10,8.61,16.84,26.26,16.84,25.09,0,31.27-16.93,31.27-26.92C100.53,69,72,59.75,72,59.75Z"/></svg>