<svg xmlns="http://www.w3.org/2000/svg" data-name="Layer 1" viewBox="0 0 128 128"><path d="M108,91.69h-12a3.83,3.83,0,0,1-3.31-1.9l-16-27.43a4.63,4.63,0,0,0-6.69-1.43,4.76,4.76,0,0,0-1.19,6.24L79.2,84.83a4.57,4.57,0,0,1-4,6.86h-38a4.75,4.75,0,0,0-4.79,4.16,4.62,4.62,0,0,0,4.6,5.07h71.16a4.62,4.62,0,0,0,4.59-5.07A4.75,4.75,0,0,0,108,91.69Z"/><path d="M66.38,36.45,50.69,63.83A4.74,4.74,0,0,0,51.9,70a4.63,4.63,0,0,0,6.71-1.45l10.25-17.9a4.57,4.57,0,0,1,7.92,0l19.1,33.08a4.63,4.63,0,0,0,4,2.31,4.62,4.62,0,0,0,4-6.92L68.29,17.5a4.61,4.61,0,0,0-6.69-1.44,4.73,4.73,0,0,0-1.2,6.22l6,10.35A3.83,3.83,0,0,1,66.38,36.45Z"/><path d="M64.9,86.15A4.62,4.62,0,0,0,69.23,80a4.54,4.54,0,0,0-4.35-3h0L44.23,77a4.56,4.56,0,0,1-4-6.85l19.1-33.09a4.61,4.61,0,0,0-8-4.61L15.8,94.08a4.61,4.61,0,1,0,8,4.61l6.08-10.52a3.81,3.81,0,0,1,3.3-1.91Z"/></svg>