<svg xmlns="http://www.w3.org/2000/svg" data-name="Layer 1" viewBox="0 0 128 128"><polygon points="98.86 31.59 96.36 35.92 104.5 40.62 104.5 65.89 85.17 77.09 87.68 81.42 109.5 68.8 109.5 37.73 98.86 31.59"/><polygon points="101.35 79.13 101.35 89.21 78.27 102.53 66.53 92.92 66.51 81.83 80.72 67.06 47.28 67.06 61.51 81.85 61.53 95.29 77.78 108.58 106.35 92.09 106.35 79.13 101.35 79.13"/><polygon points="63.98 116.55 37.15 100.69 37.15 77.5 42.15 77.5 42.15 97.84 64.02 110.76 69.41 107.64 71.91 111.97 63.98 116.55"/><polygon points="39.72 56.87 56.04 63.52 56.04 51.68 38.86 51.68 18.5 62.31 18.5 90.27 29.5 96.62 32 92.29 23.5 87.38 23.5 65.34 39.72 56.87"/><polygon points="64 11.46 51.37 18.75 56.37 21.64 64 17.24 83.91 28.79 83.91 51.68 71.96 51.68 71.96 63.52 88.91 56.47 88.91 25.91 64 11.46"/><polygon points="23.5 52.94 18.5 52.94 18.5 37.73 46.55 21.54 65.11 32.49 62.57 36.8 46.52 27.32 23.5 40.62 23.5 52.94"/></svg>