<svg xmlns="http://www.w3.org/2000/svg" data-name="Layer 1" viewBox="0 0 128 128"><polygon points="79.32 83.92 67.76 62.27 78.36 44.17 72.13 44.17 64.2 57.12 56.67 44.17 49.73 44.17 60.7 62.84 47.79 83.92 55.08 83.92 63.57 69.42 71.52 83.92 79.32 83.92"/><path d="M64,115.24A51.27,51.27,0,0,1,13.18,70.41L13,69l8.59-5L13,59l.18-1.38a51.22,51.22,0,0,1,101.64,0L115,59l-8.59,5L115,69l-.18,1.38A51.27,51.27,0,0,1,64,115.24Zm-46.43-44a47,47,0,0,0,92.86,0L98,64l12.39-7.26a47,47,0,0,0-92.86,0L30,64Z"/></svg>