<svg class="border shadow-md" viewBox="0 0 1351.68 675.84" xmlns="http://www.w3.org/2000/svg" preserveAspectRatio="none" style="width: 1351.68px; height: 675.84px;"><rect class="bg" id="bg" x="0" y="0" width="1351.68" height="675.84" fill="#000000"/><rect x="-20" y="5.632000000000001" width="249" height="33.792" rx="16.896" fill="#29242C" opacity="1"/><rect x="239" y="5.632000000000001" width="167" height="33.792" rx="16.896" fill="#47026C" opacity="1"/><rect x="416" y="5.632000000000001" width="135.168" height="33.792" rx="16.896" fill="#29242C" opacity="1"/><rect x="561.168" y="5.632000000000001" width="135.168" height="33.792" rx="16.896" fill="#7B6E29" opacity="1"/><rect x="706.336" y="5.632000000000001" width="187" height="33.792" rx="16.896" fill="#47026C" opacity="1"/><rect x="903.336" y="5.632000000000001" width="135.168" height="33.792" rx="16.896" fill="#47026C" opacity="1"/><rect x="1048.504" y="5.632000000000001" width="154" height="33.792" rx="16.896" fill="#9A9884" opacity="1"/><rect x="1212.504" y="5.632000000000001" width="135.168" height="33.792" rx="16.896" fill="#47026C" opacity="1"/><rect x="1357.672" y="5.632000000000001" width="377" height="33.792" rx="16.896" fill="#7B6E29" opacity="1"/><rect x="-20" y="50.688" width="386" height="33.792" rx="16.896" fill="#29242C" opacity="1"/><rect x="376" y="50.688" width="255" height="33.792" rx="16.896" fill="#47026C" opacity="1"/><rect x="641" y="50.688" width="406" height="33.792" rx="16.896" fill="#29242C" opacity="1"/><rect x="1057" y="50.688" width="135.168" height="33.792" rx="16.896" fill="#47026C" opacity="1"/><rect x="1202.1680000000001" y="50.688" width="436" height="33.792" rx="16.896" fill="#47026C" opacity="1"/><rect x="-20" y="95.74400000000001" width="420" height="33.792" rx="16.896" fill="#9A9884" opacity="1"/><rect x="410" y="95.74400000000001" width="135.168" height="33.792" rx="16.896" fill="#47026C" opacity="1"/><rect x="555.168" y="95.74400000000001" width="135.168" height="33.792" rx="16.896" fill="#7B6E29" opacity="1"/><rect x="700.336" y="95.74400000000001" width="280" height="33.792" rx="16.896" fill="#001311" opacity="1"/><rect x="990.336" y="95.74400000000001" width="135.168" height="33.792" rx="16.896" fill="#29242C" opacity="1"/><rect x="1135.504" y="95.74400000000001" width="135.168" height="33.792" rx="16.896" fill="#001311" opacity="1"/><rect x="1280.672" y="95.74400000000001" width="138" height="33.792" rx="16.896" fill="#001311" opacity="1"/><rect x="-20" y="140.8" width="221" height="33.792" rx="16.896" fill="#7B6E29" opacity="1"/><rect x="211" y="140.8" width="193" height="33.792" rx="16.896" fill="#47026C" opacity="1"/><rect x="414" y="140.8" width="178" height="33.792" rx="16.896" fill="#9A9884" opacity="1"/><rect x="602" y="140.8" width="152" height="33.792" rx="16.896" fill="#001311" opacity="1"/><rect x="764" y="140.8" width="382" height="33.792" rx="16.896" fill="#9A9884" opacity="1"/><rect x="1156" y="140.8" width="159" height="33.792" rx="16.896" fill="#29242C" opacity="1"/><rect x="1325" y="140.8" width="302" height="33.792" rx="16.896" fill="#7B6E29" opacity="1"/><rect x="-20" y="185.85600000000002" width="135.168" height="33.792" rx="16.896" fill="#29242C" opacity="1"/><rect x="125.168" y="185.85600000000002" width="432" height="33.792" rx="16.896" fill="#001311" opacity="1"/><rect x="567.168" y="185.85600000000002" width="227" height="33.792" rx="16.896" fill="#001311" opacity="1"/><rect x="804.168" y="185.85600000000002" width="229" height="33.792" rx="16.896" fill="#001311" opacity="1"/><rect x="1043.1680000000001" y="185.85600000000002" width="295" height="33.792" rx="16.896" fill="#001311" opacity="1"/><rect x="1348.1680000000001" y="185.85600000000002" width="400" height="33.792" rx="16.896" fill="#7B6E29" opacity="1"/><rect x="-20" y="230.91200000000003" width="135.168" height="33.792" rx="16.896" fill="#29242C" opacity="1"/><rect x="125.168" y="230.91200000000003" width="139" height="33.792" rx="16.896" fill="#001311" opacity="1"/><rect x="274.168" y="230.91200000000003" width="283" height="33.792" rx="16.896" fill="#47026C" opacity="1"/><rect x="567.168" y="230.91200000000003" width="135.168" height="33.792" rx="16.896" fill="#9A9884" opacity="1"/><rect x="712.336" y="230.91200000000003" width="135.168" height="33.792" rx="16.896" fill="#001311" opacity="1"/><rect x="857.504" y="230.91200000000003" width="320" height="33.792" rx="16.896" fill="#47026C" opacity="1"/><rect x="1187.504" y="230.91200000000003" width="135.168" height="33.792" rx="16.896" fill="#7B6E29" opacity="1"/><rect x="1332.672" y="230.91200000000003" width="135.168" height="33.792" rx="16.896" fill="#9A9884" opacity="1"/><rect x="-20" y="275.968" width="325" height="33.792" rx="16.896" fill="#7B6E29" opacity="1"/><rect x="315" y="275.968" width="400" height="33.792" rx="16.896" fill="#9A9884" opacity="1"/><rect x="725" y="275.968" width="135.168" height="33.792" rx="16.896" fill="#29242C" opacity="1"/><rect x="870.168" y="275.968" width="135.168" height="33.792" rx="16.896" fill="#9A9884" opacity="1"/><rect x="1015.336" y="275.968" width="145" height="33.792" rx="16.896" fill="#47026C" opacity="1"/><rect x="1170.336" y="275.968" width="135.168" height="33.792" rx="16.896" fill="#47026C" opacity="1"/><rect x="1315.504" y="275.968" width="135.168" height="33.792" rx="16.896" fill="#001311" opacity="1"/><rect x="-20" y="321.02400000000006" width="157" height="33.792" rx="16.896" fill="#29242C" opacity="1"/><rect x="147" y="321.02400000000006" width="135.168" height="33.792" rx="16.896" fill="#29242C" opacity="1"/><rect x="292.168" y="321.02400000000006" width="157" height="33.792" rx="16.896" fill="#9A9884" opacity="1"/><rect x="459.168" y="321.02400000000006" width="179" height="33.792" rx="16.896" fill="#47026C" opacity="1"/><rect x="648.168" y="321.02400000000006" width="363" height="33.792" rx="16.896" fill="#001311" opacity="1"/><rect x="1021.168" y="321.02400000000006" width="135.168" height="33.792" rx="16.896" fill="#29242C" opacity="1"/><rect x="1166.336" y="321.02400000000006" width="135.168" height="33.792" rx="16.896" fill="#9A9884" opacity="1"/><rect x="1311.504" y="321.02400000000006" width="145" height="33.792" rx="16.896" fill="#9A9884" opacity="1"/><rect x="-20" y="366.08000000000004" width="287" height="33.792" rx="16.896" fill="#29242C" opacity="1"/><rect x="277" y="366.08000000000004" width="135.168" height="33.792" rx="16.896" fill="#29242C" opacity="1"/><rect x="422.168" y="366.08000000000004" width="135.168" height="33.792" rx="16.896" fill="#29242C" opacity="1"/><rect x="567.336" y="366.08000000000004" width="236" height="33.792" rx="16.896" fill="#7B6E29" opacity="1"/><rect x="813.336" y="366.08000000000004" width="135.168" height="33.792" rx="16.896" fill="#9A9884" opacity="1"/><rect x="958.504" y="366.08000000000004" width="135.168" height="33.792" rx="16.896" fill="#29242C" opacity="1"/><rect x="1103.672" y="366.08000000000004" width="319" height="33.792" rx="16.896" fill="#47026C" opacity="1"/><rect x="-20" y="411.136" width="136" height="33.792" rx="16.896" fill="#29242C" opacity="1"/><rect x="126" y="411.136" width="135.168" height="33.792" rx="16.896" fill="#47026C" opacity="1"/><rect x="271.168" y="411.136" width="230" height="33.792" rx="16.896" fill="#001311" opacity="1"/><rect x="511.168" y="411.136" width="313" height="33.792" rx="16.896" fill="#47026C" opacity="1"/><rect x="834.168" y="411.136" width="383" height="33.792" rx="16.896" fill="#29242C" opacity="1"/><rect x="1227.1680000000001" y="411.136" width="226" height="33.792" rx="16.896" fill="#9A9884" opacity="1"/><rect x="-20" y="456.19200000000006" width="135.168" height="33.792" rx="16.896" fill="#47026C" opacity="1"/><rect x="125.168" y="456.19200000000006" width="251" height="33.792" rx="16.896" fill="#47026C" opacity="1"/><rect x="386.168" y="456.19200000000006" width="135.168" height="33.792" rx="16.896" fill="#29242C" opacity="1"/><rect x="531.336" y="456.19200000000006" width="135.168" height="33.792" rx="16.896" fill="#9A9884" opacity="1"/><rect x="676.504" y="456.19200000000006" width="207" height="33.792" rx="16.896" fill="#29242C" opacity="1"/><rect x="893.504" y="456.19200000000006" width="135.168" height="33.792" rx="16.896" fill="#7B6E29" opacity="1"/><rect x="1038.672" y="456.19200000000006" width="443" height="33.792" rx="16.896" fill="#47026C" opacity="1"/><rect x="-20" y="501.24800000000005" width="135.168" height="33.792" rx="16.896" fill="#9A9884" opacity="1"/><rect x="125.168" y="501.24800000000005" width="304" height="33.792" rx="16.896" fill="#7B6E29" opacity="1"/><rect x="439.168" y="501.24800000000005" width="231" height="33.792" rx="16.896" fill="#7B6E29" opacity="1"/><rect x="680.168" y="501.24800000000005" width="435" height="33.792" rx="16.896" fill="#47026C" opacity="1"/><rect x="1125.1680000000001" y="501.24800000000005" width="285" height="33.792" rx="16.896" fill="#9A9884" opacity="1"/><rect x="-20" y="546.304" width="162" height="33.792" rx="16.896" fill="#29242C" opacity="1"/><rect x="152" y="546.304" width="374" height="33.792" rx="16.896" fill="#29242C" opacity="1"/><rect x="536" y="546.304" width="289" height="33.792" rx="16.896" fill="#9A9884" opacity="1"/><rect x="835" y="546.304" width="206" height="33.792" rx="16.896" fill="#001311" opacity="1"/><rect x="1051" y="546.304" width="156" height="33.792" rx="16.896" fill="#47026C" opacity="1"/><rect x="1217" y="546.304" width="310" height="33.792" rx="16.896" fill="#7B6E29" opacity="1"/><rect x="-20" y="591.36" width="159" height="33.792" rx="16.896" fill="#001311" opacity="1"/><rect x="149" y="591.36" width="203" height="33.792" rx="16.896" fill="#001311" opacity="1"/><rect x="362" y="591.36" width="135.168" height="33.792" rx="16.896" fill="#29242C" opacity="1"/><rect x="507.168" y="591.36" width="248" height="33.792" rx="16.896" fill="#47026C" opacity="1"/><rect x="765.168" y="591.36" width="135.168" height="33.792" rx="16.896" fill="#7B6E29" opacity="1"/><rect x="910.336" y="591.36" width="230" height="33.792" rx="16.896" fill="#9A9884" opacity="1"/><rect x="1150.336" y="591.36" width="135.168" height="33.792" rx="16.896" fill="#9A9884" opacity="1"/><rect x="1295.504" y="591.36" width="357" height="33.792" rx="16.896" fill="#7B6E29" opacity="1"/><rect x="-20" y="636.416" width="382" height="33.792" rx="16.896" fill="#29242C" opacity="1"/><rect x="372" y="636.416" width="135.168" height="33.792" rx="16.896" fill="#47026C" opacity="1"/><rect x="517.168" y="636.416" width="237" height="33.792" rx="16.896" fill="#29242C" opacity="1"/><rect x="764.168" y="636.416" width="337" height="33.792" rx="16.896" fill="#47026C" opacity="1"/><rect x="1111.1680000000001" y="636.416" width="429" height="33.792" rx="16.896" fill="#47026C" opacity="1"/></svg>