<?xml version="1.0" encoding="utf-8"?>
<!-- Generator: Adobe Illustrator 23.0.1, SVG Export Plug-In . SVG Version: 6.00 Build 0)  -->
<svg version="1.1" id="Layer_1" xmlns="http://www.w3.org/2000/svg" xmlns:xlink="http://www.w3.org/1999/xlink" x="0px" y="0px"
	 viewBox="0 0 560 677" style="enable-background:new 0 0 560 677;" xml:space="preserve">
<style type="text/css">
	.st0{fill:#F0BE16;}
	.st1{fill:#22242D;fill-opacity:0.46;}
	.st2{fill:none;stroke:#626262;stroke-width:0.5;}
	.st3{fill-opacity:0.42;}
	.st4{fill:#22242D;}
	.st5{fill:#D23D3D;}
	.st6{fill:#04D482;}
	.st7{fill:#484D5C;}
	.st8{fill:#3C3C3E;}
	.st9{fill:#4A4A51;}
	.st10{fill:#007B4B;}
	.st11{fill:#FFC916;}
	.st12{fill:#9B9B9B;}
	.st13{fill:#272A32;}
	.st14{fill:none;}
	.st15{fill-rule:evenodd;clip-rule:evenodd;fill:#54E4C2;}
	.st16{fill:#54E4C2;}
	.st17{fill:#04D582;}
	.st18{fill:none;stroke:#54E48E;stroke-width:2;stroke-linecap:round;}
	.st19{fill:#04D482;stroke:#F5F5F5;stroke-width:2;}
	.st20{fill:#101114;stroke:#595959;stroke-width:0.5;}
	.st21{fill:#AA8500;fill-opacity:0.1;}
	.st22{fill:none;stroke:#FFC916;stroke-width:0.5;stroke-linecap:round;stroke-linejoin:round;stroke-miterlimit:10;}
	.st23{fill:none;stroke:#FFC916;stroke-width:0.5;stroke-linecap:round;stroke-linejoin:round;}
	.st24{fill:url(#SVGID_1_);}
	.st25{fill:url(#SVGID_2_);}
	.st26{fill:#F9B17B;}
	.st27{fill:#F9AE7B;}
	.st28{opacity:0.5;}
	.st29{fill:#F69164;}
	.st30{fill:#8A5D3B;}
	.st31{fill:#321B0F;}
	.st32{fill:#A87C4F;}
	.st33{fill:#603813;}
	.st34{fill:#404041;}
	.st35{fill:#929497;}
</style>
<ellipse class="st0" cx="335.2" cy="407.4" rx="39.5" ry="38.4"/>
<ellipse class="st0" cx="186.9" cy="271.3" rx="41.6" ry="40.5"/>
<g>
	<path class="st1" d="M52.7,81.4h410.2c4.1,0,7.5,3.7,7.5,8.4v438.7c0,4.6-3.3,8.4-7.5,8.4H52.7c-4.1,0-7.5-3.7-7.5-8.4V89.7
		C45.2,85.1,48.6,81.4,52.7,81.4z"/>
	<path class="st2" d="M53,82h409.5c4,0,7.2,3.6,7.2,8.1v438.1c0,4.5-3.2,8.1-7.2,8.1H53c-4,0-7.2-3.6-7.2-8.1V90
		C45.8,85.6,49,82,53,82z"/>
</g>
<g>
	<path class="st3" d="M102,103.2h249.4c2.4,0,4.3,1.9,4.3,4.1v109c0,2.3-1.9,4.1-4.3,4.1H102c-2.4,0-4.3-1.9-4.3-4.1v-109
		C97.8,105.1,99.7,103.2,102,103.2z"/>
</g>
<path class="st4" d="M98.5,98.6h249.4c2.4,0,4.3,1.9,4.3,4.1v109c0,2.3-1.9,4.1-4.3,4.1H98.5c-2.4,0-4.3-1.9-4.3-4.1v-109
	C94.2,100.5,96.1,98.6,98.5,98.6z"/>
<path d="M112.8,123.9h71.5c2.3,0,4.2,1.9,4.2,4.1V198c0,2.3-1.9,4.1-4.2,4.1h-71.5c-2.3,0-4.2-1.9-4.2-4.1v-69.9
	C108.5,125.8,110.4,123.9,112.8,123.9z"/>
<ellipse class="st5" cx="113.6" cy="108.5" rx="5.3" ry="5.1"/>
<ellipse class="st6" cx="131.1" cy="108.5" rx="5.3" ry="5.1"/>
<path class="st7" d="M146.4,106.7h71c1,0,1.8,0.8,1.8,1.7v0c0,0.9-0.8,1.7-1.8,1.7h-71c-1,0-1.8-0.8-1.8-1.7v0
	C144.6,107.4,145.4,106.7,146.4,106.7z"/>
<path class="st8" d="M233.9,195.2h71c1,0,1.8,0.8,1.8,1.7v0c0,1-0.8,1.7-1.8,1.7h-71c-1,0-1.8-0.8-1.8-1.7v0
	C232.2,196,233,195.2,233.9,195.2z"/>
<path class="st9" d="M233.9,128.5h71c1,0,1.8,0.8,1.8,1.7v0c0,0.9-0.8,1.7-1.8,1.7h-71c-1,0-1.8-0.8-1.8-1.7v0
	C232.2,129.3,233,128.5,233.9,128.5z"/>
<path class="st8" d="M234.1,157.3h44.4c1,0,1.8,0.8,1.8,1.7l0,0c0,1-0.8,1.7-1.8,1.7h-44.4c-1,0-1.8-0.8-1.8-1.7l0,0
	C232.4,158,233.1,157.3,234.1,157.3z"/>
<path class="st9" d="M233.8,187.2h92.3c1,0,1.8,0.8,1.8,1.7l0,0c0,1-0.8,1.7-1.8,1.7h-92.3c-1,0-1.8-0.8-1.8-1.7l0,0
	C232,187.9,232.8,187.2,233.8,187.2z"/>
<path class="st8" d="M233.8,137.7h95.9c1,0,1.8,0.8,1.8,1.7l0,0c0,1-0.8,1.7-1.8,1.7h-95.9c-1,0-1.8-0.8-1.8-1.7l0,0
	C232,138.5,232.8,137.7,233.8,137.7z"/>
<path class="st9" d="M233.8,166.5h95.9c1,0,1.8,0.8,1.8,1.7v0c0,1-0.8,1.7-1.8,1.7h-95.9c-1,0-1.8-0.8-1.8-1.7v0
	C232,167.2,232.8,166.5,233.8,166.5z"/>
<ellipse class="st10" cx="213.9" cy="133.8" rx="8.4" ry="8.1"/>
<ellipse class="st11" cx="213.9" cy="162.7" rx="8.4" ry="8.1"/>
<ellipse class="st12" cx="213.9" cy="191.6" rx="8.4" ry="8.1"/>
<path class="st13" d="M321.9,73.3h39c1.8,0,3.2,1.4,3.2,3.1V114c0,1.7-1.4,3.1-3.2,3.1h-39c-1.8,0-3.2-1.4-3.2-3.1V76.4
	C318.7,74.7,320.1,73.3,321.9,73.3z"/>
<rect x="327" y="81.4" class="st14" width="27.5" height="27.6"/>
<g>
	<path class="st3" d="M12.5,325.2h249.4c2.4,0,4.3,1.9,4.3,4.1v109c0,2.3-1.9,4.1-4.3,4.1H12.5c-2.4,0-4.3-1.9-4.3-4.1v-109
		C8.2,327,10.1,325.2,12.5,325.2z"/>
</g>
<path class="st4" d="M8.9,320.6h249.4c2.4,0,4.3,1.9,4.3,4.1v109c0,2.3-1.9,4.1-4.3,4.1H8.9c-2.4,0-4.3-1.9-4.3-4.1v-109
	C4.6,322.4,6.5,320.6,8.9,320.6z"/>
<ellipse class="st5" cx="24.3" cy="330.3" rx="5.3" ry="5.1"/>
<ellipse class="st6" cx="41.8" cy="330.3" rx="5.3" ry="5.1"/>
<path class="st7" d="M57.1,328.6h71c1,0,1.8,0.8,1.8,1.7l0,0c0,1-0.8,1.7-1.8,1.7h-71c-1,0-1.8-0.8-1.8-1.7l0,0
	C55.3,329.4,56.1,328.6,57.1,328.6z"/>
<path class="st9" d="M121.7,350.5h89.7c1,0,1.8,0.8,1.8,1.7l0,0c0,1-0.8,1.7-1.8,1.7h-89.7c-1,0-1.8-0.8-1.8-1.7l0,0
	C120,351.2,120.7,350.5,121.7,350.5z"/>
<path class="st8" d="M122,379.2h56.4c1,0,1.8,0.8,1.8,1.7l0,0c0,1-0.8,1.7-1.8,1.7H122c-1,0-1.8-0.8-1.8-1.7l0,0
	C120.2,380,121,379.2,122,379.2z"/>
<path class="st9" d="M121.5,408h116.3c1,0,1.8,0.8,1.8,1.7l0,0c0,1-0.8,1.7-1.8,1.7H121.5c-1,0-1.8-0.8-1.8-1.7l0,0
	C119.8,408.7,120.6,408,121.5,408z"/>
<path class="st8" d="M121.5,359.7h120.7c1,0,1.8,0.8,1.8,1.7l0,0c0,1-0.8,1.7-1.8,1.7H121.5c-1,0-1.8-0.8-1.8-1.7l0,0
	C119.7,360.4,120.5,359.7,121.5,359.7z"/>
<path class="st9" d="M121.5,388.4h120.7c1,0,1.8,0.8,1.8,1.7l0,0c0,1-0.8,1.7-1.8,1.7H121.5c-1,0-1.8-0.8-1.8-1.7l0,0
	C119.7,389.2,120.5,388.4,121.5,388.4z"/>
<path class="st8" d="M121.7,417.2h89.7c1,0,1.8,0.8,1.8,1.7l0,0c0,1-0.8,1.7-1.8,1.7h-89.7c-1,0-1.8-0.8-1.8-1.7l0,0
	C120,417.9,120.7,417.2,121.7,417.2z"/>
<path class="st13" d="M232.3,295.3h39c1.8,0,3.2,1.4,3.2,3.1v37.5c0,1.7-1.4,3.1-3.2,3.1h-39c-1.8,0-3.2-1.4-3.2-3.1v-37.5
	C229.1,296.6,230.5,295.3,232.3,295.3z"/>
<rect x="238.7" y="303.3" class="st14" width="27.5" height="27.6"/>
<g>
	<path class="st15" d="M19.2,388c-0.6-7.2,0.8-14.5,4.2-20.9c3.4-6.5,8.5-11.9,14.8-15.7c6.3-3.8,13.7-5.8,21.1-5.8
		c1,0,1.8,0.8,1.8,1.7s-0.8,1.7-1.8,1.7c-6.8,0-13.5,1.8-19.3,5.3c-5.8,3.5-10.5,8.4-13.5,14.3c-3.1,5.9-4.4,12.5-3.8,19.1
		c0.6,6.6,3,12.9,7.1,18.2c4,5.3,9.5,9.4,15.8,11.9c6.3,2.5,13.2,3.2,19.9,2.1c6.7-1.1,13-4,18.1-8.4c5.1-4.4,8.9-10,10.9-16.4
		c0.3-0.9,1.3-1.4,2.2-1.1c0.9,0.3,1.4,1.2,1.2,2.1c-2.2,6.9-6.3,13.1-11.9,17.9c-5.6,4.8-12.4,8-19.8,9.2
		c-7.3,1.2-14.9,0.4-21.8-2.3c-6.9-2.7-12.9-7.2-17.4-13C22.5,402.2,19.8,395.2,19.2,388z"/>
</g>
<path class="st15" d="M19.2,388c-0.6-7.2,0.8-14.5,4.2-20.9c3.4-6.5,8.5-11.9,14.8-15.7c6.3-3.8,13.7-5.8,21.1-5.8
	c1,0,1.8,0.8,1.8,1.7s-0.8,1.7-1.8,1.7c-6.8,0-13.5,1.8-19.3,5.3c-5.8,3.5-10.5,8.4-13.5,14.3c-3.1,5.9-4.4,12.5-3.8,19.1
	c0.6,6.6,3,12.9,7.1,18.2c4,5.3,9.5,9.4,15.8,11.9c6.3,2.5,13.2,3.2,19.9,2.1c6.7-1.1,13-4,18.1-8.4c5.1-4.4,8.9-10,10.9-16.4
	c0.3-0.9,1.3-1.4,2.2-1.1c0.9,0.3,1.4,1.2,1.2,2.1c-2.2,6.9-6.3,13.1-11.9,17.9c-5.6,4.8-12.4,8-19.8,9.2
	c-7.3,1.2-14.9,0.4-21.8-2.3c-6.9-2.7-12.9-7.2-17.4-13C22.5,402.2,19.8,395.2,19.2,388z"/>
<g>
	<path class="st16" d="M98.9,392.1c1-5,1-10.2-0.1-15.3c-1.1-5-3.2-9.8-6.1-14.1c-3-4.3-6.8-7.9-11.2-10.7
		c-4.4-2.8-9.4-4.8-14.6-5.7l-7.6,38.4L98.9,392.1z"/>
</g>
<path class="st16" d="M98.9,392.1c1-5,1-10.2-0.1-15.3c-1.1-5-3.2-9.8-6.1-14.1c-3-4.3-6.8-7.9-11.2-10.7c-4.4-2.8-9.4-4.8-14.6-5.7
	l-7.6,38.4L98.9,392.1z"/>
<g>
	<path class="st3" d="M289.5,237.8h249.4c2.4,0,4.3,1.9,4.3,4.1v109c0,2.3-1.9,4.1-4.3,4.1H289.5c-2.4,0-4.3-1.9-4.3-4.1v-109
		C285.2,239.6,287.2,237.8,289.5,237.8z"/>
</g>
<path class="st4" d="M285.9,232h249.4c2.4,0,4.3,1.9,4.3,4.1v109c0,2.3-1.9,4.1-4.3,4.1H285.9c-2.4,0-4.3-1.9-4.3-4.1v-109
	C281.7,233.9,283.6,232,285.9,232z"/>
<path class="st17" d="M484.7,330.9v8h-1.2v-6.9h-2.4v-1.1H484.7z"/>
<path class="st17" d="M487.1,339.3c-0.2,0-0.4-0.1-0.6-0.2c-0.2-0.2-0.2-0.4-0.2-0.6c0-0.2,0.1-0.4,0.2-0.6c0.2-0.2,0.4-0.2,0.6-0.2
	c0.2,0,0.4,0.1,0.6,0.2c0.2,0.2,0.2,0.3,0.2,0.6c0,0.2-0.1,0.4-0.2,0.6C487.5,339.3,487.3,339.3,487.1,339.3z"/>
<path class="st17" d="M491.7,334.4c1.2-0.1,2.1,0.1,2.7,0.6c0.6,0.4,0.9,1.1,0.9,1.8c0,0.5-0.1,0.9-0.4,1.3
	c-0.2,0.4-0.6,0.7-1.1,0.9c-0.5,0.2-1.1,0.3-1.8,0.3c-0.6,0-1.2-0.1-1.7-0.3c-0.6-0.2-1-0.4-1.4-0.8l0.6-0.9
	c0.3,0.3,0.7,0.5,1.1,0.7c0.5,0.2,0.9,0.2,1.4,0.2c0.6,0,1.1-0.1,1.5-0.4c0.4-0.3,0.5-0.6,0.5-1.1c0-0.5-0.2-0.9-0.6-1.1
	c-0.4-0.3-2-0.2-2-0.2h-2.7l0.5-4.6h5v1.1h-3.8l-0.2,2.3H491.7z"/>
<path class="st17" d="M500.2,334.5c0.9,0.1,1.6,0.3,2,0.8c0.5,0.4,0.7,1,0.7,1.7c0,0.5-0.1,0.9-0.4,1.3c-0.3,0.4-0.6,0.7-1.2,1
	c-0.5,0.2-1.1,0.3-1.9,0.3c-0.6,0-1.3-0.1-1.9-0.3c-0.6-0.2-1.1-0.4-1.5-0.8l0.6-1c0.3,0.3,0.7,0.5,1.2,0.7c0.5,0.2,1,0.2,1.5,0.2
	c0.7,0,1.2-0.1,1.6-0.4c0.4-0.3,0.6-0.6,0.6-1.1s-0.2-0.8-0.6-1.1c-0.4-0.3-0.9-0.4-1.7-0.4H499v-1l1.4-2.5h-3.7v-1.1h6v0.8
	L500.2,334.5z"/>
<path class="st17" d="M505.3,335.4c-0.6,0-1.1-0.2-1.4-0.6c-0.4-0.4-0.5-1-0.5-1.6c0-0.7,0.2-1.2,0.5-1.6c0.4-0.4,0.8-0.6,1.4-0.6
	s1.1,0.2,1.4,0.6c0.4,0.4,0.5,1,0.5,1.6c0,0.7-0.2,1.2-0.5,1.7C506.4,335.2,505.9,335.4,505.3,335.4z M510.3,330.9h0.9l-5.6,8h-0.9
	L510.3,330.9z M505.3,334.7c0.4,0,0.7-0.1,0.9-0.4c0.2-0.3,0.3-0.7,0.3-1.2c0-0.5-0.1-0.9-0.3-1.2c-0.2-0.3-0.5-0.4-0.9-0.4
	c-0.4,0-0.7,0.1-0.9,0.4c-0.2,0.3-0.3,0.7-0.3,1.2c0,0.5,0.1,0.9,0.3,1.2C504.6,334.6,504.9,334.7,505.3,334.7z M510.6,339.3
	c-0.6,0-1.1-0.2-1.4-0.6c-0.4-0.4-0.5-1-0.5-1.7c0-0.7,0.2-1.2,0.5-1.6c0.4-0.4,0.8-0.6,1.4-0.6s1.1,0.2,1.4,0.6
	c0.4,0.4,0.5,1,0.5,1.6c0,0.7-0.2,1.2-0.5,1.6C511.7,339.1,511.2,339.3,510.6,339.3z M510.6,338.7c0.4,0,0.6-0.1,0.9-0.4
	c0.2-0.3,0.3-0.7,0.3-1.2c0-0.5-0.1-0.9-0.3-1.2c-0.2-0.3-0.5-0.4-0.9-0.4c-0.4,0-0.7,0.1-0.9,0.4c-0.2,0.3-0.3,0.7-0.3,1.2
	c0,0.5,0.1,0.9,0.3,1.2C510,338.5,510.3,338.7,510.6,338.7z"/>
<path class="st6" d="M473.2,332.7c0.4-0.7,1.3-0.7,1.7,0l2.5,4.7c0.4,0.7-0.1,1.6-0.8,1.6h-5.1c-0.8,0-1.2-0.9-0.8-1.6L473.2,332.7z
	"/>
<ellipse class="st5" cx="300.7" cy="242.4" rx="5.3" ry="5.1"/>
<ellipse class="st6" cx="318.2" cy="242.4" rx="5.3" ry="5.1"/>
<path class="st7" d="M333.5,241.2h71c1,0,1.8,0.8,1.8,1.7l0,0c0,1-0.8,1.7-1.8,1.7h-71c-1,0-1.8-0.8-1.8-1.7l0,0
	C331.7,242,332.5,241.2,333.5,241.2z"/>
<path class="st13" d="M509.4,206.7h39c1.8,0,3.2,1.4,3.2,3.1v37.5c0,1.7-1.4,3.1-3.2,3.1h-39c-1.8,0-3.2-1.4-3.2-3.1v-37.5
	C506.2,208.1,507.6,206.7,509.4,206.7z"/>
<rect x="514.5" y="214.8" class="st14" width="27.5" height="27.6"/>
<g>
	<path class="st18" d="M306,315.6l16.8-21.7l53.1-22.5l52.2,15l27-7.5l22.4,23.4l16.8,1.7l13.1-12.5"/>
</g>
<path class="st18" d="M306,315.6l16.8-21.7l53.1-22.5l52.2,15l27-7.5l22.4,23.4l16.8,1.7l13.1-12.5"/>
<ellipse class="st19" cx="321.7" cy="295.1" rx="4.2" ry="4.1"/>
<ellipse class="st19" cx="376" cy="271.3" rx="4.2" ry="4.1"/>
<ellipse class="st19" cx="426.8" cy="286.6" rx="4.2" ry="4.1"/>
<ellipse class="st19" cx="454.8" cy="278.1" rx="4.2" ry="4.1"/>
<ellipse class="st19" cx="477.6" cy="301.9" rx="4.2" ry="4.1"/>
<ellipse class="st19" cx="493.4" cy="303.6" rx="4.2" ry="4.1"/>
<ellipse class="st19" cx="509.1" cy="290" rx="4.2" ry="4.1"/>
<g>
	<path class="st3" d="M147.4,477h249.4c2.4,0,4.3,1.9,4.3,4.1v109c0,2.3-1.9,4.1-4.3,4.1H147.4c-2.4,0-4.3-1.9-4.3-4.1v-109
		C143.1,478.8,145.1,477,147.4,477z"/>
</g>
<path class="st4" d="M143.8,471.2h249.4c2.4,0,4.3,1.9,4.3,4.1v109c0,2.3-1.9,4.1-4.3,4.1H143.8c-2.4,0-4.3-1.9-4.3-4.1v-109
	C139.6,473.1,141.5,471.2,143.8,471.2z"/>
<ellipse class="st5" cx="159.1" cy="481.6" rx="5.3" ry="5.1"/>
<ellipse class="st6" cx="176.6" cy="481.6" rx="5.3" ry="5.1"/>
<path class="st7" d="M191.9,480.4h71c1,0,1.8,0.8,1.8,1.7l0,0c0,1-0.8,1.7-1.8,1.7h-71c-1,0-1.8-0.8-1.8-1.7l0,0
	C190.1,481.2,190.9,480.4,191.9,480.4z"/>
<path class="st13" d="M367.3,445.9h39c1.8,0,3.2,1.4,3.2,3.1v37.5c0,1.7-1.4,3.1-3.2,3.1h-39c-1.8,0-3.2-1.4-3.2-3.1V449
	C364.1,447.3,365.5,445.9,367.3,445.9z"/>
<path class="st20" d="M157.3,515.5h91.1c2.2,0,4,1.8,4,3.9v32.4c0,2.2-1.8,3.9-4,3.9h-91.1c-2.2,0-4-1.8-4-3.9v-32.4
	C153.3,517.2,155.1,515.5,157.3,515.5z"/>
<path class="st20" d="M287.5,515.5h91.1c2.2,0,4,1.8,4,3.9v32.4c0,2.2-1.8,3.9-4,3.9h-91.1c-2.2,0-4-1.8-4-3.9v-32.4
	C283.5,517.2,285.3,515.5,287.5,515.5z"/>
<path class="st21" d="M268,545.4c-5.9,0-10.7-4.6-10.7-10.4s4.8-10.4,10.7-10.4c5.9,0,10.7,4.6,10.7,10.4S273.9,545.4,268,545.4z"/>
<path class="st22" d="M265.4,534.1l1.5-1.5"/>
<path class="st22" d="M270.3,533.9h-4.8"/>
<path class="st22" d="M270.6,535.9l-1.5,1.5"/>
<path class="st22" d="M265.5,536.2h4.8"/>
<path class="st23" d="M268,530.1c-2.8,0-5.1,2.2-5.1,4.9c0,2.7,2.3,4.9,5.1,4.9s5.1-2.2,5.1-4.9C273.1,532.3,270.8,530.1,268,530.1z
	"/>
<path class="st9" d="M318.1,539.6c-0.9,0-1.7-0.2-2.2-0.7c-0.5-0.5-0.8-1.2-0.8-2.1v-3.5h1.2v2.9c0.7,1.2,1.2,1.8,2.3,1.8
	c1.1,0,1.6-0.6,1.3-1.8v-2.9h1.2v3.5c0,0.9-0.3,1.6-0.8,2.1C319.8,539.3,319,539.6,318.1,539.6z"/>
<path class="st9" d="M325.1,539.1c-0.5,0-1-0.1-1.4-0.2c-0.5-0.1-0.8-0.3-1.1-0.5l0.4-0.9c0.3,0.2,0.6,0.4,1,0.5
	c0.4,0.1,0.8,0.2,1.1,0.2c0.5,0,0.8-0.1,1.1-0.2c0.2-0.1,0.4-0.3,0.4-0.6c0-0.2-0.1-0.3-0.2-0.4c-0.1-0.1-0.3-0.2-0.5-0.3
	c-0.2-0.1-0.5-0.1-0.8-0.2c-0.5-0.1-0.9-0.2-1.2-0.3c-0.3-0.1-0.6-0.3-0.8-0.5c-0.2-0.2-0.3-0.6-0.3-1c0-0.3,0.1-0.7,0.3-0.9
	c0.2-0.3,0.5-0.5,0.9-0.7c0.4-0.2,0.9-0.2,1.4-0.2c0.4,0,0.8,0,1.1,0.1c0.4,0.1,0.7,0.2,1,0.4l-0.4,0.9c-0.3-0.2-0.6-0.3-0.9-0.4
	c-0.3-0.1-0.6-0.1-0.9-0.1c-0.5,0-0.8,0.1-1,0.2c-0.2,0.2-0.3,0.4-0.3,0.6c0,0.2,0.1,0.3,0.2,0.4c0.1,0.1,0.3,0.2,0.5,0.3
	c0.2,0.1,0.5,0.1,0.8,0.2c0.5,0.1,0.9,0.2,1.2,0.3c0.3,0.1,0.6,0.3,0.8,0.5c0.2,0.2,0.3,0.6,0.3,1c0,0.3-0.1,0.7-0.3,0.9
	c-0.2,0.3-0.5,0.5-0.9,0.7C326.1,539,325.7,539.1,325.1,539.1z"/>
<path class="st9" d="M329.4,533.3h2.6c0.6,0,1.2,0.1,1.7,0.4c0.5,0.2,0.9,0.6,1.1,1c0.3,0.4,0.4,0.9,0.4,1.5c0,0.6-0.1,1.1-0.4,1.5
	c-0.3,0.4-0.7,0.8-1.1,1c-0.5,0.2-1.1,0.4-1.7,0.4h-2.6V533.3z M332.3,537.9c0.5,0,1-0.1,1.3-0.3c0.4-0.2,0.7-0.5,0.9-0.8
	c0.2-0.4,0.3-0.8,0.3-1.2c0-0.5-0.1-0.9-0.3-1.2c-0.2-0.4-0.5-0.6-0.9-0.8c-0.4-0.2-0.8-0.3-1.3-0.3h-1.7v4.6H332.3z"/>
<path class="st9" d="M337.8,532.2h-2.4v1.1h6v-1.1H339v6.9h-1.2V532.2z"/>
<g>
	<path shape-rendering="crispEdges" class="st14" d="M292.4,527.6h15.5v14.9h-15.5V527.6z"/>
</g>
<rect x="373.6" y="454" class="st14" width="27.5" height="27.6"/>
<path class="st9" d="M192.1,537.9v1.1h-4.8v-6.9h4.8v1.1h-4.8v2.3h3.6v1.1h-2.4v1.1H192.1z"/>
<path class="st9" d="M194.5,532.2h-2.4v1.1h6v-1.1h-2.4v6.9h-1.2V532.2z"/>
<path class="st9" d="M204,533.3v5.7h-1.2v-2.3h-2.4v2.3h-1.2v-5.7h1.2v2.3h2.4v-2.3H204z"/>
<g>
	<path shape-rendering="crispEdges" class="st14" d="M163.4,527.6H179v14.9h-15.5V527.6z"/>
</g>
<linearGradient id="SVGID_1_" gradientUnits="userSpaceOnUse" x1="6.7411" y1="892.0948" x2="6.7411" y2="884.9534" gradientTransform="matrix(0.7071 0.7071 0.7071 -0.7071 -574.0394 719.8537)">
	<stop  offset="0" style="stop-color:#FFC916"/>
	<stop  offset="1" style="stop-color:#E8C842"/>
</linearGradient>
<polygon class="st24" points="59,91.4 64.1,96.3 59,101.2 54,96.3 "/>
<linearGradient id="SVGID_2_" gradientUnits="userSpaceOnUse" x1="334.414" y1="773.2017" x2="334.414" y2="759.2021" gradientTransform="matrix(0.7071 0.7071 0.7071 -0.7071 -427.2644 521.5074)">
	<stop  offset="0" style="stop-color:#FFC916"/>
	<stop  offset="1" style="stop-color:#E8C842"/>
</linearGradient>
<polygon class="st25" points="351,206.6 360.9,216.2 351,225.8 341.1,216.2 "/>
<g>
	<g>
		<g>
			<g>
				<path class="st26" d="M168.1,158.4h-36.8c-2,0-3.7-1.4-3.7-3.1v-0.7c0-1.7,1.7-3.1,3.7-3.1h36.8c2,0,3.7,1.4,3.7,3.1v0.7
					C171.8,157,170.1,158.4,168.1,158.4z"/>
			</g>
		</g>
		<g>
			<g>
				<rect x="144.3" y="168.8" class="st27" width="9.6" height="8"/>
			</g>
		</g>
		<g class="st28">
			<g>
				<path class="st29" d="M149.5,162.7c-1,0-2.1,0-3.1,0.1c-0.7,0.1-1.4,0.2-2,0.4v9.4c1.4,0.4,2.6,0.5,3.2,0.6
					c0.6,0.1,1.3,0.1,2.1,0.1c0.7,0,1.3-0.1,1.8-0.2c0.5-0.1,1.4-0.2,2.4-0.5c0-0.1,0-0.1,0-0.2v-9.1c-1.5,0-2.9-0.2-4.2-0.6
					C149.6,162.7,149.6,162.7,149.5,162.7z"/>
			</g>
		</g>
		<g>
			<g>
				<path class="st26" d="M152.1,171c-0.5,0.1-1.1,0.1-1.8,0.2c-0.8,0-1.4,0-2-0.1c-1.6-0.2-6.5-0.8-10.3-4.4
					c-0.7-0.7-2.7-2.5-3.7-5.5c-0.4-1.3-0.7-2.6-0.7-4v-10.4c0-7.5,6.7-13.5,14.9-13.5h2.5c8.2,0,14.9,6.1,14.9,13.5v10.4
					c0,1.1-0.3,5.7-4.4,9.6C157.8,170.2,153.4,170.9,152.1,171z"/>
			</g>
		</g>
	</g>
	<g>
		<g>
			<path class="st30" d="M150.1,161.9C150.1,161.9,150.1,161.9,150.1,161.9c-2.7-0.5-3.9-1-3.9-1.8c0-0.5,0.5-0.8,1-1.1
				c0.5-0.3,1-0.6,1.4-1.1c0.6-0.9,0.7-2.1,0.2-3.6c-0.1-0.2,0.1-0.4,0.2-0.4c0.2,0,0.4,0.1,0.5,0.2c0.5,1.7,0.4,3.1-0.3,4.1
				c-0.5,0.6-1.1,1-1.6,1.3c-0.3,0.2-0.6,0.4-0.6,0.5c0,0,0.1,0.6,3.3,1.1c0.2,0,0.3,0.2,0.3,0.4
				C150.5,161.8,150.3,161.9,150.1,161.9z"/>
		</g>
	</g>
	<g>
		<g>
			<ellipse class="st31" cx="158.1" cy="155.4" rx="1.7" ry="2.4"/>
		</g>
	</g>
	<g>
		<g>
			<ellipse class="st31" cx="141.2" cy="155.4" rx="1.7" ry="2.4"/>
		</g>
	</g>
	<g>
		<g>
			<path class="st32" d="M158.9,163.7c-4,0-7.3-2.9-7.3-6.5c0-3.6,3.3-6.5,7.3-6.5c4,0,7.3,2.9,7.3,6.5
				C166.2,160.8,162.9,163.7,158.9,163.7z M158.9,151.4c-3.6,0-6.5,2.6-6.5,5.8c0,3.2,2.9,5.8,6.5,5.8c3.6,0,6.5-2.6,6.5-5.8
				C165.4,154,162.5,151.4,158.9,151.4z"/>
		</g>
	</g>
	<g>
		<g>
			<path class="st32" d="M139.8,163.7c-4,0-7.3-2.9-7.3-6.5c0-3.6,3.3-6.5,7.3-6.5s7.3,2.9,7.3,6.5
				C147,160.8,143.7,163.7,139.8,163.7z M139.8,151.4c-3.6,0-6.5,2.6-6.5,5.8c0,3.2,2.9,5.8,6.5,5.8c3.6,0,6.5-2.6,6.5-5.8
				C146.3,154,143.3,151.4,139.8,151.4z"/>
		</g>
	</g>
	<g>
		<g>
			<rect x="146.7" y="156.1" class="st32" width="6" height="1.1"/>
		</g>
	</g>
	<g>
		<g>
			<path class="st30" d="M150.1,165c-1.2,0-2-0.5-2.4-0.7c-0.2-0.1-0.2-0.3-0.1-0.5c0.1-0.2,0.3-0.2,0.5-0.1
				c0.3,0.2,1.2,0.7,2.3,0.5c1.1-0.1,1.8-0.7,2.1-1c0.1-0.1,0.4-0.2,0.5,0c0.2,0.1,0.2,0.3,0,0.5c-0.3,0.3-1.2,1-2.5,1.2
				C150.4,165,150.3,165,150.1,165z"/>
		</g>
	</g>
	<g>
		<g>
			<path class="st33" d="M160.3,149.2c-0.2,0-0.3-0.1-0.5-0.2c-1.4-1-3.4-1-4.8,0c-0.3,0.2-0.8,0.2-1-0.1s-0.2-0.7,0.1-0.9
				c1.9-1.4,4.7-1.4,6.7,0c0.3,0.2,0.4,0.6,0.1,0.9C160.8,149.1,160.6,149.2,160.3,149.2z"/>
		</g>
	</g>
	<g>
		<g>
			<path class="st33" d="M142.9,149.2c-0.2,0-0.3-0.1-0.5-0.2c-1.4-1-3.4-1-4.8,0c-0.3,0.2-0.8,0.2-1-0.1s-0.2-0.7,0.1-0.9
				c1.9-1.4,4.7-1.4,6.7,0c0.3,0.2,0.4,0.6,0.1,0.9C143.3,149.1,143.1,149.2,142.9,149.2z"/>
		</g>
	</g>
	<g>
		<g>
			<path class="st33" d="M167,146.6c0-1.4-0.1-3.5-0.9-5.3c-2.2-5.4-10.2-8.1-13.4-8.4c-1.1-0.6-2.2-1-3.5-1.5
				c-6.4-2-12.6-0.9-13.9,2.4c-0.4,1.1-0.3,2.3,0.4,3.5c-5,2.4-8,5.6-7.1,7.9c0.4,1,1.5,1.6,3,2c0,1.3,0,2.4-0.1,3.3
				c0,1-0.1,2.4,0.9,3.3c0.1,0.1,0.2,0.2,0.3,0.3c0.2,0.1,0.6,0.4,1.2,0.4c0.7,0,1.3-0.4,1.6-0.8c0.5-0.8-0.1-1.7-0.4-2.9
				c-0.2-0.8-0.4-1.9-0.2-3.3c2.6,0,5.8-0.6,9-1.6c1.5-0.5,2.8-1,4.1-1.7c0.7,0.1,1.3,0.2,1.9,0.2c1,1.8,2.8,3,4.8,3
				c2.9,0,5.2-2.5,5.7-5.7c0.4,0.3,1.3,1,1.9,2.1c0.5,0.9,0.9,2,0.9,4.6c0,1.4,0,3.3-0.3,5.6c0.1,0.1,0.6,0.6,1.5,0.6
				c0.9,0,1.4-0.4,1.5-0.5C166.5,152.4,167.1,149.8,167,146.6z"/>
		</g>
	</g>
	<g>
		<g>
			<path class="st34" d="M167.2,179.2c-3.5-1.3-9.3-3.1-16.7-3.3c-7.3-0.2-13.2,1.1-16.7,2.2c-1.2,0.3-3.4,1.1-5.6,3
				c-0.8,0.7-2.4,2.4-3.3,4.9c-0.4,1.1-0.6,2.3-0.6,3.6l0,0h50l0,0c0-1.2-0.3-5.4-3.9-8.4C169.3,180.1,168.2,179.6,167.2,179.2z"/>
		</g>
	</g>
	<g>
		<g>
			<path class="st35" d="M156,176.6c0.2-0.1,0.3-0.3,0.3-0.6v-0.7c0-0.4-0.4-0.8-0.9-0.8H144c-0.5,0-0.9,0.3-0.9,0.8v0.7
				c0,0.1,0,0.3,0.1,0.4c-0.7,0.1-1.4,0.2-2.1,0.3c-0.8,0.1-1.5,0.3-2.2,0.4c0.3,0.4,4,5.2,10.9,5.2c6.7,0,10.4-4.6,10.7-5
				C159.2,177.1,157.7,176.8,156,176.6z"/>
		</g>
	</g>
</g>
</svg>
